<?xml version="1.0" encoding="utf-8"?>
<!-- Generator: Adobe Illustrator 24.0.2, SVG Export Plug-In . SVG Version: 6.00 Build 0)  -->
<svg version="1.1"
	 id="svg244" sodipodi:docname="c2dca9db894e84aa439b9fac011b02ba.cdr" xmlns:inkscape="http://www.inkscape.org/namespaces/inkscape" xmlns:sodipodi="http://sodipodi.sourceforge.net/DTD/sodipodi-0.dtd" xmlns:svg="http://www.w3.org/2000/svg"
	 xmlns="http://www.w3.org/2000/svg" xmlns:xlink="http://www.w3.org/1999/xlink" x="0px" y="0px" viewBox="0 0 262.7 185.1"
	 style="enable-background:new 0 0 262.7 185.1;" xml:space="preserve">
<style type="text/css">
	.st0{fill-rule:evenodd;clip-rule:evenodd;fill:#D40023;}
	.st1{fill-rule:evenodd;clip-rule:evenodd;fill:#6C1D1F;}
	.st2{fill-rule:evenodd;clip-rule:evenodd;}
	.st3{fill-rule:evenodd;clip-rule:evenodd;stroke:#000000;stroke-width:0.216;}
	.st4{fill-rule:evenodd;clip-rule:evenodd;fill:#FFFFFF;stroke:#FFFFFF;stroke-width:0.216;}
	.st5{fill-rule:evenodd;clip-rule:evenodd;stroke:#000000;stroke-width:0.5669;}
	.st6{fill-rule:evenodd;clip-rule:evenodd;fill:#FFFFFF;}
</style>
<sodipodi:namedview  bordercolor="#666666" borderopacity="1.0" id="namedview246" inkscape:pagecheckerboard="0" inkscape:pageopacity="0.0" inkscape:pageshadow="2" pagecolor="#ffffff">
	</sodipodi:namedview>
<g id="Layer1000" transform="translate(-166.31199,-328.40481)">
	<path id="path2" class="st0" d="M260.4,417.7c0,0-1-1.5-0.7-2c0.1-0.1,0.3-0.2,0.3-0.2v-0.6c0,0,0.3-0.1,0.5-0.2
		c0.1-0.2,0.1-0.6,0.1-0.9c0-0.2,0.3,0,0.7-0.5c0.2-0.1,0.4,0,0.5-0.3c0.1-0.3,1.2-0.1,1.7,0c0.4,0.1,1.6,0.9,2,0.9
		c0.4,0,0.5,0,0.5-0.5c0-0.8-0.2-2.2-0.1-2.4c0.6-0.6,0.2-0.9,0.6-0.9c0.4,0,0.2,0.5,0.8,0.3c0.2-0.1,0.3-0.7,0.3-0.7
		s0.2-0.2,0.4-0.3c0.2-0.1,0.8,0.7,0.8,0.7s0.1-0.2,0.3-0.3c0.3,0.3,0.2,0.3,0.5,0.5l0.2,0.1c0,0,0.3,0.2,0.6,0.3
		c0.2,0,0.6-0.3,1,0.2c0.2-0.3,0.3-0.5,0.4-0.6c0.2-0.1,0.4,0.4,0.8,0.3c0.2-0.4,0.5-1.2,0.8-1.1c0.2,0,0.4,0.4,0.5,0.5
		c0.2,0.1,0.4-0.1,0.6-0.2c0.8,1.4,1.6,0.9,1.7,0.7c-0.3-0.6-0.2-0.6-0.2-0.6s0.1-0.1,0-0.7c0-0.1,0.1-0.2,0.1-0.5
		c0.1-0.1,0.6-0.2,1.3,0c0.2,0,0.2-0.4,0.2-0.7c0.1-0.2-0.3-0.4-0.3-0.7c0.1-0.2,0-0.3-0.1-0.9c0.2-0.1,0.2-0.2,0.3-0.5
		c0.5,0,0.8,0,1.1,0.1c0.3,0.1,0.4,0,0.5-0.1c0.1-0.2,0-0.2-0.2-0.5c0.3-0.1,1.1,0,1.1-0.1c0.2-0.5,0.6-0.3,1-0.3
		c0.9,0,1.1,0.3,1.7,0.2c0.1-0.9-0.2-0.7-0.3-1.1c0.6-0.1,0.5-0.1,1-0.1c0.3,0,0.6-0.3,0.9-0.3c0.3,0,0.4,0.2,0.6,0.3
		c0.1-0.3-0.3-0.7-0.2-1.2c0.3,0.2,0.9,1.1,0.9,1.1l0.1-0.4c0,0-0.2-0.2-0.1-0.4c0.1-0.2,0.3-0.1,0.3-0.1s0.2-0.2,0.6,0
		c0,0-0.1-0.4-0.1-0.7c0-0.2,0.1-0.5,0.3-0.4c0.3-0.2,0.1-0.2,0.1-0.2s0.3,0.6,0.3,0.8c0.2-0.2,0.1-0.5,0.2-0.9
		c0.3-0.1,0.6,0.6,0.8,0.4c0.2-0.3,0.1-0.6,0.1-0.6c0,0,0.3,0.2,0.6,0.5c0.1-0.1,0.2-0.1,0.6,0.3c0,0,0.3-0.2,0.3-0.4
		c0-0.3,0-0.8,0.1-0.9c0.1-0.1,0.7,0.8,0.7,0.8l0.2-0.4c0,0-0.7-0.8-0.9-1.5c0.2-0.6,0.8,0.8,1.1,0.7c0.3-0.1-0.5-0.7,0.2-1.2
		c0.2,0,0.6-0.1,0.7-0.3c0.5,0.1,0.7,0.7,0.7,1c0.3,0.3,0.6,0.8,0.9,1.3c0.3,0.5,0.4,1,0.5,1.1c0.2,0.1,0.6-2.1,0.6-2.1
		s0.1-0.2,0.4-0.4c0.2-0.2,0.3-1,0.5-0.9c0.2,0.1,0.5,0.5,0.5,0.5l0.2-0.3c0,0,0.2,0.2,0.4,0.6c0.1,0.4,0.4,2,0.4,2s0.3-0.3,0.4-0.5
		c0.1-0.3,0.4,0,0.6-0.2c0.1-0.1,0.2,0.3,0.3,0.2c0.1-0.1,0.2-0.2,0.2-0.2s0.1-0.3,0.4-0.6c0.2-0.2,0.3,0.1,0.4-0.1
		c0.1-0.2,0.2,0.7,0.2,0.6c0.2-0.3,0.4-0.1,0.5-0.4c0.1-0.2,0.2-0.9,0.5-0.9c0.1,0.3,0,0.5,0.1,0.6c0.3-0.1,0.6-0.7,0.7-0.7
		c0.2,0.1,0.2,1.4,0.5,1.4c0.1,0,0.3-0.4,0.4-0.3c0.1,0.1,0,0.4,0.2,0.5c0.2,0.1,0.4,0.8,0.4,0.8l0.4-0.2c0,0,0.3-0.3,0.4-0.4
		c0.2-0.3-0.5-1.8-0.4-2.3c0-0.1,0.1,0.2,0.2,0.2c0.1,0,0.1-0.4,0.2,0.1c0.1,0.3,1,1.6,1.2,1.7c0.1,0.1,0.3,0.6,0.3,0.7
		c0,0.4,0.8,1.4,0.8,1.4s0-1,0.1-0.8c0.1,0.2,0.1,0.3,0.2,0.3c0.1,0,0.1-0.1,0.3-0.2c0.2,0,0.1,0.3,0.2,0.3c0.2,0,0.2-0.2,0.3,0.1
		c0.2,0.2,0.4,0.9,0.6,1c0.1,0.1,0.2-0.1,0.4,0c0.3,0.1,0.4,1.3,0.5,1.6c0.1,0.3,0.4,2.1,0.5,2.4c0.1,0.3,0.3,0.3,0.3,0.3
		s0.2-0.9,0.2-1.2c0-0.4,0.1-1.3,0.2-1.5c0.2-0.2,0.7-1.5,0.8-1.8c0.1-0.3,0.1-1.3,0-1.5c0-0.2,0.1-0.7,0.2-0.1c0,0.6,0.1,1,0.1,1
		s0.2,0.2,0.4,0.1c0.2-0.1,0.5-0.9,0.6-1c0.1-0.2,0.4-0.6,0.1,0c-0.2,0.6-0.5,1-0.6,1.3c-0.4,0.7,0,0.9,0,0.9s0.2-0.4,0.3-0.6
		c0.1-0.2,0.4-0.5,0.5-0.6c0.1-0.1,0.8-0.7,0.9-0.7c0.1,0,0.2,0.3,0.3,0.4c0.2,0,0.5-0.5,0.7-0.8c0.6-0.7,0.6,0.3,0.3,1.3
		c-0.1,0.4-0.3,0.8-0.4,1.3c-0.1,0.5-0.1,1,0,1c0.3,0.1,0.6-0.5,0.7-0.7c0.1-0.2,0.9-0.9,1.1-1.1c0.2-0.2,0.3-0.2,0.4-0.3
		c0.2-0.2,0.1-0.3,0.4-0.3c0.2-0.1,0.6-0.4,0.7-0.3c0.5,0.3,0.3,1.4,0.3,1.4s0.3-0.2,0.4-0.4c0.2-0.3,0.3-0.5,0.4-0.4
		c0.2,0.1,0.5,0.3,0.6,0.7c0.1,0.4,0.5,1.9,0.5,1.9s0.3-0.6,0.3-0.9c0-0.2,0-0.5,0-0.5l0.2-0.3c0,0,0.3-0.5,0.3,0
		c0,2.5,0.2,1.1,0.9,0.6c0.2-0.1,0.3,0,0.3,0.2c0.1,0.2,0.2,0.1,0.2,0.3c0,0.1,0.4,0.1,0.7,0c0.2-0.1,0.4-0.3,0.5-0.5
		c0.4-0.4,0.9-0.6,0.9-0.6s0.2,0,0.3,0.1c0.2,0.4,0.3,0,0.5,0c0.2-0.1,0.4-0.1,0.4-0.5c0-0.2,0.2-0.5,0.5-0.5
		c0.3-0.1,0.9,0.1,1.3,0.2c0.4,0.2,0.9,0,0.9,0.2c0.1,0.2,0,1,0.2,1.1c0.2,0.1,0.2,0,0.6-0.1c0.4,0,0.5,0.2,0.5,0.2
		s-0.1,0.4,0.1,0.4c0.2,0,1-0.1,1.2-0.1c0.2,0,0.2,0.1,0.2,0.2c0,0.2,0.2,0.1,0.5,0.1c0.2,0,0.6,0,0.7,0c0.1,0-0.2,0.3,0,0.4
		c0.2,0.1,1.5-0.2,1.4,0c-0.1,0.2,0.5,0.2,0.2,0.8c-0.1,0.1-0.1,0.7,0.2,0.9c0.2,0.1,0.5-0.1,1-0.1c0.1,0,0.3,0.7-0.1,1.3
		c-0.1,0.2,0.6,0.1,0.5,0.3c0,0.3-0.6,1.3-0.6,1.3s0.2,0.6,1,0c0.2-0.1,0.3-0.4,0.5-0.6c0.7-0.6,0.3-0.3,0.7-0.2
		c0.4,0.1,0.7-0.3,0.8-0.5c0.2-0.1,0.2,0.1,0.4,0.2c0.2,0.2,0.2,0.5,0.3,0.7c0.1,0.2,0.2,0.2,0.5,0.2c0.2-0.1,0.3-0.5,0.4-0.3
		c0.1,0.2,0.2,0.4,0.3,0.6c0.2,0.2,0.2,0.2,0.2,0.5c-0.3,3.1,0.1,2.4,0.1,2.4s0.1-0.8,0.2-0.7c0.1,0.1,0.3,0.1,0.4,0.2
		c0.1,0.1-0.2,0.1,0.1,0.2c0.2,0.1,0.3,0.1,0.3,0.2c0,0.2,0,0.6,0.1,0.8c0.2,0.2,0.4,0.2,0.5,0.3c0.1,0.1-0.3,0.3-0.3,0.6
		c0,0.2,0.3,0.1,0.4,0.3c0.1,0.4-0.3,0.8-0.5,1.2c-0.1,0.2-0.6,0.9-0.7,1c-0.1,0.1-0.6,0.3-0.7,0.5c-0.1,0.2-0.6,0.6-0.6,0.6
		l0.1,0.7c0,0,0.3-0.2,0.5-0.5c0.3-0.2,0.9-0.7,1.1-0.8c0.2-0.1,0.7-0.1,1-0.2c0.3,0,0.9-0.3,1.2-0.3c0.3,0,0.6,0,0.6,0l0.1,0.2
		c0,0,0.3-0.1,0.4,0c0,0.1-0.2,0.4,0,0.5c0.2,0.1,0.3,0.1,0.4,0.1c0.2,0,0.2,0.1,0.3,0.3c0,0.2-0.4,1-0.2,1.3
		c0.2,0.3,0.9,0.1,1.1,0.2c0.2,0.1,0.5,0.1,0.4,0.3c-0.1,0.2-1.3,1.3-1.6,1.4c-0.2,0.1-0.6,0.3-0.6,0.3s-0.4,0.2-0.3,0.3
		c0.2,0.1,0.4,0.2,0.7,0.2c0.2-0.1,0.3-0.1,0.7-0.2c0.4,0,0.6,0,1-0.1c0.4-0.1,0.6-0.1,0.7-0.1c0.2,0.1,0.3,0.2,0.2,0.4
		c-0.1,0.2-0.3,0.3-0.2,0.5c0.1,0.2,0.3,0.4,0.5,0.6c0.1,0.1,0.4-0.1,0.2,0.2c-0.2,0.3-0.1,0.4-0.1,0.6c-0.1,0.2,0.1,0.6,0.1,0.6
		l-0.2,0.8c0,0,0.4,0.3,0.5,0.4c0.1,0.2,0,0.3-0.1,0.5c-0.1,0.2-0.2,0.7-0.2,0.7l0.9-0.5c0,0,0.1,0.1,0.3,0.1c0.3,0,0.4,0.1,0.6,0.1
		c0.5,0,0.9,0,0.5,0c0.2,0,0.5,0.2,0.4,0.4c-0.1,0.2-0.2,0.7-0.3,0.9c-0.1,0.2-0.2,0.5-0.3,0.6c-0.1,0.1,0,0.4,0.1,0.4
		c0.2,0,0.6-0.2,0.8-0.2s0.6,0,0.8,0c0.2,0,0.2,0,0.3,0.1c1.3,1.4-2.2,2.1-1.7,3c0.1,0.2,0.5-0.1,0.4,0.4c0,0.4,0.5,0.3,0.5,0.3
		l0.4,0.3c0,0,0.2-0.1,0.4,0c0.1,0,0,0.2,1-1.5c0.6,1.1-0.4,2.3-0.4,2.6c-0.1,0.4,0.9-0.4,1-0.4c0.7-0.4,1.7-1.6,1.9-1.7
		c0.2-0.1,0.5-0.5,0.5-0.5s0.1,0.3,0,0.5c-0.1,0.2-0.1,0.6-0.3,0.9c-0.2,0.3-1.1,1.5-1.5,1.9c-0.4,0.4-1,1.1-1.1,1.3
		c-0.1,0.2-0.2,0.5-0.2,0.5s0.6-0.4,0.9-0.6c0.3-0.2,1.2-0.5,1.3-0.7c0.2-0.2,1-0.9,1.2-0.9c0.1,0,0.2,0.1,0.3,0
		c0.1-0.1,0.2-0.2,0.4-0.1c0.2,0.1,0.4,0.1,0.3,0.2c-0.1,0.2-0.4,0.8-0.5,1c-0.1,0.2-0.7,0.9-0.8,1.1c-0.1,0.2-0.3,0.6-0.1,0.7
		c0.2,0.1,1.2-0.3,1.5-0.3c0.2,0,0.9-0.2,0.9-0.2s0.9-0.3,0.5,0.2c-0.4,0.5-0.5,0.7-0.4,0.9c0.1,0.2,0.5-0.1,0.5,0.1
		c0,0.2,0,0.6-0.4,0.9c-0.5,0.4-1.7,1.7-2,2.1c-0.3,0.3-0.1,0.5,0.1,0.5c0.2,0.1,1.5-0.2,1.9-0.1c0.4,0,0.6,0.1,0.9,0.3
		c0.3,0.2,0.6,0,0.9,0.2c0.3,0.2,0.1,0.3,0.2,0.5c0.1,0.2,0.2,0.3,0.3,0.5c0.1,0.1,0.2,0.4,0.2,0.5c0,0.2,0,0.2,0.1,0.3
		c0.1,0.2,0.2,0,0.2,0.2c0,0.2-0.2,0.4-0.3,0.5c-0.2,0.2-0.6,0.7-1,0.9c-0.6,0.2-0.4,0.3-0.6,0.5c0.1-0.2,0.6,0.1,0.8,0.1
		c0.2,0,0.4-0.1,0.6-0.1c0.2,0,0.6-0.1,0.5,0.2c-0.1,0.3-0.5,1-0.5,1.1c0,0.1,0.4-0.1,0.4,0.1c0,0.2-0.5,0.8-0.6,0.9
		c-0.2,0.2-1.3,0.9-1.5,1.1c-0.2,0.2-0.4,0.4-0.2,0.5c0.2,0.1,1.4,0,1.6-0.1c0.2-0.1,0.6-0.2,0.6-0.1c0,0.1-0.5,0.3-0.7,0.4
		c-0.2,0.1-0.6,0.4-0.8,0.4c-0.2,0.1-0.9,0.3-1,0.4c-0.2,0.1-0.7,0.2-0.7,0.4c-0.1,0.2,0.7,0.4,0.9,0.6c0.2,0.2,0.9,0.4,1.1,0.6
		c0.6,0.4,0.4,0.6,0.6,0.9c0.2,0.3,0.2,0.2,0.2,0.3c0,0.1-0.4,0.3-0.6,0.4c-0.2,0.1-0.2,0.4-0.4,0.4c-0.2,0,1.4,0.5,1.4,0.5
		s0.6,0.2,0.9,0.6c0.4,0.3,0.6,0.8,0.6,1c-0.4,0.3-1.9,0.8-2.1,0.9c-0.3,0.1,0.3,0.4,0.1,0.5c-0.3,0.2-0.6,0.1-0.7,0.2
		c-0.1,0.1,0.1,0.4,0.1,0.4l0,0.4c0,0,0,0.2-0.1,0.2c-0.1,0,0.2,0.2,0.5,0.3c0.3,0.2,0.5,0.3,0.6,0.5c0.2,0.2,0.3,0.3,0.3,0.3
		s0.4,0.4,0.2,0.5c-0.1,0.1-0.3,0-0.4,0.2c-0.1,0.2-0.1,0.3,0,0.5c0.1,0.1,0.2,0.3,0.2,0.3l0.2,0.3c0,0,0.1,0.1,0.1,0.3
		c-0.1,0.2-1.1,0.2-1.3,0.2c-0.3,0-0.3,0.2-0.3,0.3c0,0.1,0.1,0.3,0.1,0.5c0,0.1,0.2,0.2,0.2,0.3c-0.1,0.2-0.2,0.2-0.4,0.3
		c-0.1,0.1-0.4,0.1-0.3,0.2c0.1,0.1,0.2,0.2,0.4,0.3c0.2,0.1,0.5,0.3,0.6,0.4c0.1,0.1,0.2,0,0.3,0.1c0.1,0.1,0.4,0.4,0.5,0.5
		c0.1,0.1,0.2,0,0.3,0.2c0.1,0.2,0,0.4-0.3,0.4c-0.3,0-0.4,0.4-0.6,0.4c-0.2,0-0.4,0-0.6,0.1c-0.2,0.1-0.4,0-0.7,0
		c-0.8-0.1,0,0-0.7,0c-0.3,0-0.5,0-0.5,0s0.3,0.2,0.6,0.3c0.3,0.1,0.5,0.1,0.7,0.2c0.2,0.1,0.5,0.3,0.5,0.6c0,0.3-0.2,0.2-0.4,0.2
		c-0.2,0.1-0.4,0.1-0.6,0.2c-0.2,0.1-0.5,0.2-0.5,0.3c0,0.2,0.3,0.3,0.5,0.5c0.2,0.2,0.8,0.3,1,0.6c0.2,0.3,0.8,0.9,0.8,1.5
		c-0.3,0.1-0.2,0-0.5-0.3c-0.3-0.3-0.8-0.7-0.8-0.7s-0.5,0.1-0.6,0c-0.2-0.1-0.3,0-0.3,0s-0.4,0.2-0.8,0.2c-0.4,0-0.8,0.1-1.1,0.1
		c-0.3,0-0.9-0.1-0.8,0.1c0.1,0.2,0.8,0.6,1,0.7c0.2,0.1,1,0.3,1.2,0.4c0.2,0.1,0.7,0.3,0.7,0.5c0,0.2,0.3,0.6,0.3,0.7
		c0,0.1-0.1,0.3-0.4,0.4c-0.2,0.1-0.6,0.2-0.7,0.4c-0.2,0.2,0,0.2,0.2,0.4c0.2,0.2,0.4,0.4,0.1,0.4c-0.2,0-1.3-0.1-1.6-0.1
		c-0.3-0.1-0.9-0.1-1.3,0c-0.3,0.2,0.6,0.6,0.7,0.8c0.2,0.2-0.2,0.4-0.2,0.4s0.4,0.6,0.6,0.7c0.2,0.2,0.3,0.3,0.4,0.5
		c0.1,0.2,0.3,0.5,0.3,0.5l0,0.3c0,0-0.2,0-0.2,0.1c-0.1,0.1-0.3,0.1-0.4,0.1c-0.1,0-0.1,0.3-0.1,0.3s-1.3-0.4-1.6-0.5
		c-0.3-0.1-1.1-0.4-1.1-0.4s0.1,0.6,0.2,0.7c0.1,0.1,0.7,0.5,0.7,0.5s0.8,0.8,0.6,0.9c-0.1,0.1-0.5,0.1-0.5,0.2
		c0,0.1,0.2,0.6,0.3,0.7c0.2,0.1,0.1,0.2-0.2,0.3c-0.3,0.1,0,0.4,0.1,0.6c0.1,0.2,0.1,0.2,0.1,0.3c0,0.2-0.1,0.3-0.3,0.3
		c-0.2,0-0.2,0.1-0.2,0.2c-0.1,0.2-0.4,0.3-0.5,0.3c-0.1,0.1-0.5,0-0.7,0c-0.2-0.1-0.2,0-0.2,0s-0.3,0.1-0.2,0.2
		c0.1,0.1-0.1,0,0,0.3c0.1,0.2,0.6,0.5,0.7,0.7c0.2,0.2,0.5,0.7,0.4,0.9c-0.1,0.2-0.2,0.3-0.3,0.4c-0.1,0.1-0.2,0.1-0.3,0.2
		c-0.2,0.1-0.2,0.3-0.2,0.3s0,0.1-0.3,0c-0.3-0.1-1-0.1-1,0c0,0.2,0.3,0.5,0.4,0.7c0,0.2-0.2,0.4-0.2,0.4s-0.4-0.2-0.6-0.2
		c-0.3,0-0.4,0.2-0.5,0.2c-0.2-0.1-0.4-0.3-0.4-0.3s-0.4,0.4-0.6,0.3c-0.2,0-0.2-0.3-0.9,0c-0.3,0-1.5-0.3-1.5-0.1
		c0,0.2,0.1,1,0.1,1.2c0.1,0.2-0.2,0.7-0.2,0.9c-0.1,0.2-0.3,0.4-0.5,0.5c-0.2,0.1-0.3,0-0.6-0.2c-0.3-0.2-0.7-0.2-0.8-0.1
		c-0.2,0.1-0.2,0.5-0.2,0.8c0,0.2,0,1,0,1.3c0,0.2,0,0.4-0.1,0.5c-0.1,0.1-0.2,0.1-0.5-0.3c-0.3-0.4-0.2-0.2-0.3-0.2
		c-0.2-0.1-0.3-0.3-0.5-0.3c-0.2-0.1-0.6-0.2-0.6-0.2s-0.3,0-0.5-0.1c-0.2,0-0.6-0.2-0.7,0c-0.1,0.2-0.1,0.5,0.1,0.6
		c0.2,0.1,0.4,0.1,0.4,0.1s0.1,0.6,0.2,0.8c0.2,0.2,0.2,0.2,0.3,0.3c0.3,0.4,0.3,0.7,0.3,0.7s-0.6-0.5-0.9-0.2
		c-0.5,0.6,0.1,0.7-0.1,0.9c-0.2,0.3,0.1,1,0.3,1.2c0.2,0.2-0.2,0.2-0.2,0.3c-0.1,0.3,0.6,0.9,0.4,1c-0.4,0.3-0.5,0-0.6,0.1
		c-0.3,0.2-0.6-0.1-0.9-0.2c-0.6-0.2-1.2-0.6-1.3-0.1c0-0.2,0.9,1.3,0.9,1.3s0.4,0.6,0.4,0.9c0.1,0.3,0.5,1,0.5,1s-0.2-0.3-0.4-0.1
		c-0.2,0.2,0,0.7-0.2,0.5c-0.5-0.5-1.3-0.5-1.6-0.6c-0.3-0.1-4.3-2.8-4.5-2.8c-0.4,0.2,0.2,2.1,1,3.5c0.4,0.7,1.1,2.3,0.9,2.8
		c-0.2,0.4,0.5,1.2,0.1,1.4c-0.3,0.1-0.3-0.7-0.9-0.9c-0.3-0.5-1.1-1.2-1.4-1.5c0,0.6,0.8,1.5,1.1,2.8c-1.1-2.1-2.3-3.7-2.3-3.5
		c0,0.2,0.1,0.2,0.1,0.7c-1.1-2.5-1.8-2.9-1.8-2.9s-0.3,0.1,0,0.8c0.4,0.7,0.4,1.9,0.5,2.1c0.4,0.6,0.9,1.5,1.3,2.1
		c0.1,0.2,0.6,0.9,0.6,1c-0.1,0.1-0.4-0.1-1.4-0.8c-1-0.8-1.4-1.1-1.5-1c-0.2,0.2-0.1,0.7-0.1,0.7l0.4,0.9c0,0,0.7,1.2,0.6,1.3
		c-0.1,0.1-1.1-0.8-1.3-0.9c-0.2-0.2-0.6-0.7-0.8-0.9c-0.2-0.1-0.4-0.2-0.3,0c0,0.2,0.1,0.7,0.2,0.8c0.1,0.2,0.6,0.9,0.6,0.9
		l0.2,0.3c0,0-0.8-0.3-1.3-0.9c-0.5-0.5-0.9-0.8-1.1-1c-0.2-0.2-0.8-0.6-0.7-1c0-0.2-0.2-0.4-0.4-0.6c-0.2-0.2-0.4-0.5-0.5-0.6
		c-0.1-0.1-0.4-0.5-0.4-0.3c0,0.1,0,0.8,0.2,0.9c0.1,0.1,0.2,0.4,0.3,0.6c0.2,0.2,0.1,0.3,0.1,0.6c0,0.2,0.2,0.9,0.3,1.3
		c0.2,0.4,0.4,1,0.6,1.2c0.1,0.2,0.4,0.6,0.3,0.6c-0.1,0-0.3,0-0.3,0s-0.1,0.2-0.3,0.2c-0.2,0-0.7-0.6-0.8-0.7
		c-0.2-0.1-0.1,0.3-0.2,0.5c-0.1,0.1-0.1,0.3-0.3,0.1c-0.2-0.2-0.6-1.1-0.7-1.5c-0.1-0.4-0.3-1.2-0.5-1.2c-0.2,0-0.4,0.3-0.2,0.7
		c0.2,0.4,0.2,0.7,0.2,0.9c0,0.2,0.1,0.7,0,0.9c-0.1,0.2-0.1,0.3-0.4,0.3c-0.3,0-0.4-0.2-0.6-0.2c-0.2,0-0.1,0.2-0.3,0.3
		c-0.2,0.1-0.4-0.2-0.6-0.5c-0.2-0.3-0.4-0.7-0.4-0.7s0.1-0.1,0-0.4c0-0.3,0-0.6-0.2-0.6c-0.2,0-0.3,0.2-0.3,0.2s0.1,0.2,0.1,0.4
		c0.1,0.2,0,0.4-0.1,0.7c-0.1,0.3-0.2,0.6-0.2,0.8c-0.1,0.2-0.2,0.4-0.3,0.5c-0.2,0.1-0.3,0.1-0.4,0.2c-0.1,0.2-0.2,0.4-0.3,0.3
		c-0.1,0-0.4-0.2-0.5-0.4c-0.1-0.2-0.3-0.6-0.3-0.6s-0.3-0.8-0.3-1c0-0.2,0-0.2-0.1,0.1c-0.1,0.2-0.3,0.4-0.4,0.5
		c-0.1,0.2-0.3,0.2-0.3,0.4c0,0.3,0,1,0.1,1.3c0.1,0.2,0.2,1,0.1,0.9c-0.2-0.1-0.3,0.1-0.4,0c-0.1-0.1-0.2-0.2-0.3-0.3
		c-0.1-0.1-0.2,0.2-0.3,0.1c-0.1-0.1-0.4,0-0.4,0s-0.4,0.4-0.4,0.6c0,0.2-0.2-0.1-0.5-0.5c-0.3-0.4-1.1-1.4-1.1-1.4s-0.2,0-0.3,0.2
		c-0.1,0.1-0.3,1-0.4,1.1c-0.1,0.1-0.9,2.2-0.9,2.3c0,0.2-0.2,0.5-0.3,0.4c-0.1-0.1,0.1-0.9,0.1-1.3c0.1-0.4,0.2-0.9,0.2-1
		c0-0.1-0.2,0-0.3,0.2c-0.1,0.2-0.2,0.4-0.2,0.4s-0.1,0.3-0.2,0.5c-0.2,0.1-0.3,0.3-0.6,0.4c-0.2,0.1-0.1,0.8-0.4,0.5
		c-0.3-0.3-0.8-0.6-1.1-0.6c-0.3,0.1-0.2,0.9-0.4,1.1c-0.2,0.2-0.2,0.6-0.5,0.7c-0.3,0.1-0.2,0.3-0.3,0.2c-0.2,0-0.1,0-0.3,0
		c-0.2,0-0.2,0.1-0.3,0.3c-0.2,0.2-0.1,0.6-0.6,0.3c-0.2-0.1-0.5,0.7-0.6,0.6c-0.2-0.1-0.2-0.6-0.4-0.9c-0.1-0.4-0.4-2-0.6-2
		c-0.2,0-0.7,0-0.8,0.3c-0.1,0.6-0.7,1.2-0.9,1.5c-0.5,0.7-0.7,0.3-1,0.3c-0.2-0.1-0.3-0.3-0.6-0.3c-0.2,0-0.5,0.1-0.6,0.1
		c-0.1,0-0.2,0.2-0.3-0.3c-0.1-0.5-0.1-0.7-0.3-0.8c-0.2-0.1-0.3-0.1-0.5,0.1c-0.2,0.2-0.1,0.2-0.3,0.3c-0.2,0.1-0.2-0.1-0.5,0
		c-0.3,0.1-0.4,0.6-0.4,0.6s-0.4-0.1-0.6-0.1c-0.2-0.1-0.2,0.1-0.4,0.3c-0.1,0.2-0.3,0.4-0.4,0.5c-0.1,0.1-0.3,0.2-0.5,0.2
		c-0.2,0-0.5,0-0.5-0.1c0-0.2-0.2-0.8-0.4-1c-0.2-0.2-0.3-0.4-0.5-0.2c-0.2,0.2-0.6,0.8-0.8,1c-0.2,0.2-0.5,0.6-0.7,0.5
		c-0.2-0.1-0.1-0.6-0.1-0.9c0-0.4,0.2-1.6,0.2-2.3c0-0.6,0-1.9,0-2.1c0-0.2-0.1-0.6-0.4,0c-0.3,0.7-0.4,1.5-0.5,1.7
		c-0.1,0.2-0.6,1.3-0.7,1.6c-0.1,0.2-0.3,0.6-0.4,0.8c-0.2,0.2-0.5,0.4-0.6,0.6c-0.1,0.2-0.3,0.4-0.5,0.6c-0.3,0.2-0.5,0.6-0.5,0.1
		c0-0.5,0.2-2.3,0.2-2.6c-0.1-0.3-0.2-0.5-0.5-0.2c-0.4,0.3-0.4,0.6-0.6,0.8c-0.2,0.2-1.1,1.9-1.5,1.6c-0.3-0.4,0-2.2,0-2.8
		c0-0.5,0.2-2.5-0.1-2.6c-0.2,0-0.8,0.8-1.2,1.1c-0.3,0.3-1.4,1.5-1.8,1.8c-0.3,0.3-0.8,0.6-1.1,0.4c-0.2-0.1,0.2-0.6,0.3-0.9
		c0.1-0.3,0-0.6-0.1-0.6c-0.2,0.1-0.6,0.4-0.6,0.5c-0.1,0.1-0.3,0.2,0.1-0.6c0.4-0.8,0.5-1.3,0.7-1.6c0.2-0.3,0.2-1,0.2-1
		s-0.8,0.6-0.9,0.7c-0.2,0.2-0.6,0.5-0.8,0.5c-0.1,0-0.3,0.2-0.3,0.2s0-0.2,0.2-0.5c0.2-0.3,0.4-1.2,0.4-1.3c0-0.1,0.2-0.5,0.1-0.5
		c-0.2,0.1-0.8,0.3-0.9,0.4c-0.2,0.2-0.6,0.5-0.7,0.6c-0.1,0.1-0.3,0.4-0.4,0.4c-0.1-0.1-0.3-0.2-0.2-0.7c0.1-0.5,0.1-2,0.2-2.4
		c0.1-0.5,0.5-1.3,0.5-1.4c0-0.2-0.2-0.5-0.4-0.4c-0.2,0.2-0.3,0.5-0.5,0.8c-0.1,0.3-0.6,1.2-0.7,1.3c-0.1,0.1-0.9,1.7-1.1,1.9
		c-0.2,0.2-0.2,0-0.2-0.3c-0.1-0.3-0.1-0.4-0.4-0.2c-0.3,0.2-0.4,0.5-0.4,0.2c-0.1-0.2,0-0.4-0.2-0.6c-0.2-0.1-0.3-0.2-0.5-0.1
		c-0.2,0.2-0.5,0.4-0.5,0.4s-0.1,0-0.2-0.5c-0.1-0.5-0.2-1.1-0.2-1.3s-0.1-0.5-0.2-0.4c-0.2,0.2-0.3,0.3-0.5,0.3
		c-0.1-0.1-0.2-0.3-0.3-0.3c-0.1,0-0.1,0.2-0.4,0.2c-0.3,0-0.4-0.1-0.5-0.2c-0.1-0.1-0.3,0-0.3,0l-0.2-0.2l-0.3,0.1
		c0,0,0.1-0.5-0.1-0.5c-0.2,0-0.5,0.4-0.5,0.4s-0.1-0.2-0.2-0.2c-0.2,0-0.3,0-0.6,0.2c-0.3,0.2-0.6,0.4-0.8,0.4
		c-0.2,0.1-0.2,0-0.4,0.2c-0.2,0.2-0.6,0.6-0.6,0.2c0-0.3-0.1-0.7,0-1.2c0.1-0.5,0.6-0.8,0.7-0.9c0.2-0.2,0.8-1,0.9-0.8
		c-0.1-0.3-0.2-0.4-0.6-0.2c-0.2,0-0.8,0.4-0.6-0.4c0.1-0.5,0-0.9,0-1.2c0-0.3-2,2.4-2.5,2.8c-0.4,0.3,0-1-0.6-0.5
		c-0.3,0.2-0.5-0.2-0.7-0.1c-0.1,0-0.8,0.4-0.7,0.1c0.2-0.6,1.2-2.3,1.2-2.5c0-1.2-0.6-0.6-0.6-0.6s-1.8,2.1-1.9,2
		c-0.1-0.1,1.3-2.1,2.2-4.4c0.6-1.7,1.6-2.6,1.7-3.1c0-0.2-0.4-0.1-0.8,0.2c-0.3,0.3-1.5,1.2-1.8,1.3c-0.3,0.1-2,1.1-2.1,1.2
		c-0.1,0.1-0.5,0.3,0-0.7c0.3-0.7,0.7-1.2,0.4-1.1c-0.3,0.1-1,0.2-1,0.2s-0.4,0.2,0.2-0.6c0.6-0.9,1.1-1,0.9-1.3
		c-0.2-0.2-0.6-0.2-1.5,0.1c-0.8,0.3-1.3,0.5-1.8,0.5c-0.3,0-0.8-0.4-0.5-1.1c0.3-0.7,1-1.3,1.4-1.7c0.4-0.4,2.3-1.9,2.2-1.9
		c-0.1-0.3-0.7-0.3-1.2-0.1c-0.5,0.2-2.4,0.9-2.8,1c-0.4,0.1-1,0.4-1.3,0.2c-0.3-0.2-0.4-0.5-0.4-0.8c0-0.3-0.3-0.2-0.3-0.4
		c0-0.2,0.5-0.3,0.8-0.6c0.3-0.3,0.6-1,0.8-1.3c0.2-0.3,0.5-0.6,0.7-0.8c0.2-0.2,0.1-0.4,0.2-0.7c0.1-0.3,0.3-0.8,0.4-1.1
		c0.1-0.3,0-0.4-0.3-0.3c-0.3,0-1.8,0.4-2.7,0.2c-0.9-0.2-1.2-0.3-1.4-0.4c-0.2-0.2-0.6-0.3-0.6-0.3s0-0.2,0-0.4
		c0-0.2-0.2-0.2-0.3-0.2c-0.1,0-0.1-0.5,0-0.6s0.4-0.5,0.3-0.6c-0.1-0.2-0.7,0-0.9,0c-0.1,0-0.6,0.1-0.6,0.1s0.1-0.8,0.2-0.9
		c0.1-0.2,1.7-2.1,1.8-2.3c0-0.2,0.1-0.7-0.4-0.6c-0.4,0.1-0.8,0.2-1.1,0.2c-0.3,0.1-2,0.6-2,0.6s-0.6,0.1-0.7-0.2
		c-0.2-0.2,0.1-0.9,0.4-1.2c0.3-0.3,0.9-1.3,0.9-1.3l-0.8,0.2c0,0,0.1-0.3,0.3-0.6c0.2-0.3,0.3-0.8,0.1-0.7
		c-0.2,0.1-0.3,0.4-0.5,0.5c-0.2,0.1-0.7,0.3-0.7,0.3s-0.9,0.9-1.1,1c-0.1,0-0.5,0-0.7-0.4c-0.1-0.2,0.1-0.4,0.4-0.7
		c0.2-0.2,0.1-0.5,0.3-0.6c0.2-0.1,0.2-0.2,0.2-0.2s-0.1-0.2-0.4-0.1c-0.3,0.1-0.9,0.6-0.9,0.6s-0.3-0.2-0.5-0.5
		c-0.1-0.1,0-0.3,0.2-0.6c0.2-0.5,0.2-0.7,0.1-0.9c-0.1-0.2-0.4-0.1-0.6,0c-0.2,0.1-0.7,0.4-0.4,0c0.3-0.4,0.5-1.3,1.6-2
		c0.3-0.2,1.3-0.6,1.5-0.8c0.2-0.2,0.5-0.3,0.6-0.4c0.2-0.1-0.2-0.2-0.2-0.2s-0.6,0-0.9,0.1c-0.4,0.1-0.5,0.1-0.9,0.2
		c-0.3,0-0.8,0.1-1-0.1c-0.2-0.2-0.2-0.2-0.3-0.4c-0.1-0.2-0.2-0.2-0.4-0.3c-0.2-0.1-0.3-0.2-0.2-0.3c0.1-0.1-0.2-0.4-0.2-0.4
		s0.2,0-0.6,0c-1.7,0-1.8-0.2-1.8-0.2s-1.2-0.2-1-0.2c0.1,0,0.4,0,0.5,0c0.1-0.1-0.1-0.3,0.1-0.3c0.3,0,1.1,0.1,1.3-0.2
		c0.3-0.2,0.7-0.4-0.1-0.5c-0.8-0.2-1.7-0.3-2-0.4c-0.3-0.1-1.1-0.2-1.1-0.4c0-0.2,0.5-0.2,0.5-0.4c0-0.2-0.6-0.6-0.4-0.7
		c0.2-0.1,0.8-0.2,1.1-0.3c0.3-0.1,0.9-0.2,1-0.4c0.2-0.1,0.2-0.4,0.2-0.4s-0.6-0.2-0.8-0.3c-0.3-0.1-0.8-0.2-0.9-0.3
		c-0.1-0.1-0.2-0.3,0.2-0.8c0.5-0.5-0.4-0.6-0.4-0.8c0.7-0.7,0.5-0.8,0.8-0.9c0.3-0.2,1-0.4,1-0.4s-0.3-0.2-0.2-0.4
		c0.1-0.2,0.2-0.6,0.1-0.7c-0.1-0.1-0.9,0-0.8-0.2c0.1-0.1,0.4-0.2,0.2-0.4c-1.5-0.6-1.9-0.7-2.1-1c0-0.2,0.2-0.5,0.5-0.9
		c0.3-0.3,0.6-0.6,0.9-0.7c0.4-0.2,0.9-0.3,0.9-0.3s0.3,0,0.5-0.2c0.2-0.2-0.8-0.6-0.9-0.8c-0.1-0.1,0.4-0.6,0.3-0.8
		c0.2-0.2,0.3-0.3,0.5-0.5c0.5-0.3,1.6-0.8,1.8-0.9c0.1-0.2,0.1-0.4-0.5-0.6c-0.6-0.2-1.2-0.4-1.6-0.6c-0.2-0.1-1-0.3-1-0.6
		c0-0.2,1.9,0.4,2.3,0.1c0.4-0.2-0.4-0.5-1.1-1c-0.8-0.5-1.6-1.2-1.5-1.7c0.1-0.1,0.4-0.1,0.4-0.1s-0.8-1.1-0.2-1.2
		c0.4-0.1,1.2,0.4,1.7-0.1c0.1-0.1-1.5-1-1.2-1c0.9-0.2,1.9,0.2,1.9-0.1c0-0.2-0.3-0.5-0.3-0.5s0.1-0.1,0.2-0.2
		c0.2-0.3,0-0.5,0.1-0.7c0.2-0.2,0.2-0.2,0.4-0.3c0.2-0.7,0.2-0.9,0.5-0.9c0.5,0,0.9,0.1,1-0.2c0.1-0.2,0.7-0.2,0.9-0.2
		c0.7,0,1.4,0.5,1.8,0c0-0.1-0.2-0.6-1.2-1.6c-0.2-0.2-1.1-1.3-1-1.7c0-0.1,0.5,0.1,0.6-0.1c0.2-0.2-0.5-0.9-0.6-1.2
		c0.2-0.2,0.8,0,0.8,0s0.8,0.3,1.1,0.4c0.3,0.1,1.1,0.2,1.2,0.2c0.3-0.1,0-0.3-0.1-0.6c-0.1-0.3-0.3-0.4-0.6-0.8
		c-0.1-0.2-0.6-1.3-0.5-1.5c0.3-0.3,0.5,0,0.6,0c0.4,0,0.4-0.1,0.6,0.2c0.6,0.7,1.9,1.7,3.1,2c0.1-0.5-1-1.5-1.4-2
		c-0.5-0.6-1-1-1.2-1.3c-0.2-0.3-0.5-1-0.4-1.5c0.3,0.3,1.3,1.2,1.5,1.5c0.2-0.2,0.3-0.1,0.6-0.2c0,0,0-0.1,0.1-0.2
		c0.1-0.1,0.3,0,0.4-0.1c0.1-0.5,0-0.7-0.1-0.9c-0.3-0.2-1.2-0.9-1.4-1c-0.2-0.1-0.6-0.4-0.8-0.6c-0.2-0.2-0.6-0.4-0.5-0.6
		c0.1-0.3,0.1-0.5,0.1-0.5s0.2-0.1,1.2,0c0.4,0,0.6,0.1,0.7,0c0-0.4-1.7-2-1.7-2s0.7-0.5,1.3-0.2c0.3-0.1,0.5-0.1,1.1,0.2
		c0.1-0.2-0.5-0.8-0.6-1.1c-0.2-0.2,0.2-0.4,0.4-0.4c-0.2-0.4-0.7-0.6-0.7-0.9c0-0.2-0.2-0.7-0.4-1c-0.3-0.3-0.5-0.5,0.1-0.7
		c0.2-0.2-0.9-0.9-0.6-1c1.2-0.2,2.2,0.2,3.1,0.3c0.7-0.1-0.8-0.9-1.1-1.1c-0.3-0.2-0.8-0.6-1-1c-0.2-0.2,0.1-0.4,0.3-0.6
		c-0.2,0.1,0.8,0.1,1.3-0.2c0.1-0.1-0.3-1.3-0.3-1.3s-0.1-0.4,0.9-0.3c0-0.1-0.2-0.4,0.1-0.6c0.4-0.3,0.5-0.2,1.2-0.1
		c1,0.1,0.9,0.3,1.4,0.3c0.2,0,0.8,0.3,2,1.3c0.2,0,0.2-0.5,0.1-0.6C261.6,418.6,260.4,417.7,260.4,417.7L260.4,417.7z"/>
	<path id="path4" class="st1" d="M257.2,426.7c0,0,0.8,0.1,1.2,0.5c0.5,0.4,1.1,0.6,1.6,1.3c0.5,0.7,1.2,0.8,1.4,0.3
		c0.2-0.5-0.6-1.1-1.3-1.4c-0.7-0.3-1.5-1.3-1.4-1.8c0.2-0.5,2.5,0.1,2.2-0.8c-0.3-0.9-0.6-1.2-0.6-1.2s1.4,0.6,1-0.8
		c0,0,3,1.1,2.2-1.7c0,0,0.9,0.5,1.6-0.3c0,0,1.3,1.4,2.5,0.9c1.2-0.5,1.6,0.4,1.5,0.7c-0.1,0.3-1.1,2-0.2,3.3
		c0.9,1.3,0.8,0.8,0.8,0.8c0,0.1-0.4-0.4-0.3-1.2c0.1-0.8,0.3-1.4,0.9-1.4c0,0,0.8-1.4-0.5-2.6c-1.4-1.2-2.8-0.7-2.8-0.7l-0.5-0.6
		l-1.4-0.2l-1.1,0.6l-1,0.1c0,0-0.6,0-0.8-0.5c-0.1-0.4-1.4,0.5-1.4,0.5l-0.7,0.2l-0.2,0.5l-0.5,0.4l0.4,0.5l-2.7,3.2L257.2,426.7z"
		/>
	<path id="path6" class="st1" d="M259.3,430.3c0,0-2.4,2.1-1,2.9c0,0-0.4,1.4,0.9,1.6c0,0,1.4,0.5,1.2,1.4c0,0-0.3,0.7-1.5,0.2
		c0,0-1.1-0.3-1.1-1.3c0,0-1.6-1.1-0.8-1.9C257.2,433.2,255.7,430.7,259.3,430.3L259.3,430.3z"/>
	<path id="path8" class="st1" d="M267.7,438.6c0,0-0.9-1.8,0.7-2.5c1.6-0.7,1.7-0.4,1.8-0.7c0.1-0.3,0.1-1.1,0.1-1.1l0.5-0.6
		l0.5,0.1l0.3,0.1l0.7,0.1l0.1-0.8l0.1-0.4l0.7-0.3h0.5l0.3,0.4l0.7,0.6l0.3-0.2l0.3-0.5l0.5-0.3l0.3-0.1l0.3,0.4l0.3,0.3l0.7,0.3
		l0.5-0.1l0.7-0.2l0.5-0.1l0.4,0.2l0.2,0.3l0.2,0.1l0.6-0.1l0.5,0.1l0.4,0.4l0.2,0.4l0.1,0.5l-0.1,0.5v0.3l-0.2,0.5l-0.4,0.1
		l-0.2-0.3l-0.4-0.4v-0.2l-0.8-0.6l-0.1-0.4l-0.6-0.2l-0.4-0.1l-0.6,0.1l-0.2,0.3l-0.2,0.5l-0.8,0.6L275,434l-0.5,0.1l-0.7,0.4
		l-0.4,0.2v0.2l-0.3,0.2h-0.4l-0.5-0.3l-0.6-0.1l-0.2,0.1l-0.4,0.3l-0.1,0.3v0.7l-1.2,0.1l-0.9,0.4l-0.4,0.2l-0.2,0.3l-0.2,0.5
		L267.7,438.6z"/>
	<path id="path10" class="st1" d="M273.2,431.6l-0.7-0.4l-0.5-0.5l-0.5,0.1H271l-0.8-0.4l0.3-0.6l-0.2-0.6l0.1-0.6l-0.1-0.3l0.1-0.3
		l0.2-0.3l0.4-0.3l0.3-0.5l0.2-0.6l0.3-0.5l0.2-1l-0.2-0.7l0.2-0.9l-0.1-0.8l-0.1-0.5l-0.2-0.5l-0.5-0.4l-0.1-0.3l0.2-0.3l0.3-0.1
		l0.4,0.2l0.4-0.1l0.4-0.4v-0.6l0.1-0.5l1-0.8l0.5-0.2l0.3-0.6l0.5-0.3l0.1-0.9h0.2l0.3-0.4l-0.2-0.5l0.2-0.8l0.4-0.2l0.6-0.1
		l0.5,0.1l0.4,0.1l1.2-0.1l0.1-0.4v-0.4l0.3-0.2h0.4l0.3,0.2l0.2,0.1l-0.1,0.4l0.1,0.5l-0.3,0.2l-0.2,0.5h-0.3l-0.5,0.1l-0.2,0.6
		L278,416l-0.6-0.2l-0.6-0.2l-0.5,0.8v0.2l0.1,0.2v0.5l0.2,0.5l0.1,0.7h-0.4h-1.1l-0.6,0.4l-0.3,0.3l0.2,0.3l-0.3,0.3l-0.1,0.2v0.2
		v0.5l-0.3,0.2h-0.2l-0.2,0.2l-0.1,0.2l-0.2,0.3l-0.1,0.7l0.1,0.3l0.2,0.6l0.2,0.4v0.3l0.1,0.5l0.1,0.5l-0.1,0.4l-0.1,0.2l0.1,0.4
		l0.1,0.5l0.1,0.2v0.2l-0.2,0.4l-0.3,0.1H273l-0.2-0.2l-0.2-0.2l-0.2-0.3l-0.3,0.2l-0.2,0.6l-0.4,0.5l0.2,0.3l0.1,0.3l0.4,0.2
		l0.2,0.5l-0.2,0.2l-0.3-0.2l-0.2-0.1l-0.2,0.1l0.1,0.2l0.2,0.5l0.4,0.1l0.2,0.1l0.4,0.2l0.6,0.3l0.2,0.2l0.2,0.2l0.2,0.3l-0.2,0.5
		L273.2,431.6z"/>
	<path id="path12" class="st1" d="M280.6,413.5l0.2,0.2l0.3,0.1l0.1,0.2v0.4l-0.1,0.3v0.8v0.3v0.5l0.1,0.4l0.3,0.2l0.3-0.2l0.2-0.4
		l-0.1-0.5l0.7-0.1l0.5-0.2l0.3-0.2l0.5-0.5l0.3-0.2l0.6-0.2h0.4l0.2,0.2l0.1,0.3l-0.1,0.2l0.4,0.2l0.2-0.2l0.1-0.3v-0.2v-0.4
		l-0.5-0.2l-0.9-0.3l-0.3,0.2l-0.6,0.2l-0.5,0.4l-0.4,0.3l-0.4,0.2l-0.5,0.2v-0.5v-0.5l-0.1-0.6l-0.4-0.2l-0.3-0.1l-0.6-0.2
		L280.6,413.5z"/>
	<path id="path14" class="st1" d="M278.6,428h0.5l0.2-0.3l0.3-0.5l0.1-0.3l0.1-0.3l0.1-0.5l0.3-0.1l0.3-0.2l0.2-0.1l0.4-0.1l0.1-0.4
		v-0.5h0.4h0.5l0.3-0.2l0.2-0.4l0.1-0.7l0.3-0.2h0.5l0.3-0.1h0.5l0.1-0.3l0.1-0.4l-0.1-0.4l0.4-0.1l0.8,0.2h0.3l0.7,0.2l0.2-0.8
		l-0.1-0.4l-0.2-0.2l-0.4-0.1h-0.2l-0.2,0.2l-0.7,0.2l-0.2,0.1l-0.3,0.2l-0.4,0.2l-0.5,0.4h-0.9l-0.2-0.4l-0.3-0.1l-0.2-0.2
		l-0.1-0.3l-0.1-0.5l-0.1-0.5l-0.4-0.4l-0.4-0.1l-0.5,0.4l0.5,0.2l0.4,0.5l0.1,0.3l0.2,0.4l0.1,0.3l0.1,0.2l-0.4-0.2l-0.2-0.2
		l-0.4-0.4l-0.3-0.2l-0.3-0.2l-0.1-0.2l-0.3-0.3l-0.3-0.1h-0.3l-0.7-0.1h-0.4H278h-0.4h-0.2l-0.4,0.1v0.5h0.2h0.6h0.4l0.5,0.2
		l0.4,0.5l0.4,0.2l0.4,0.2l0.5,0.2l0.2,0.3v0.2l0.1,0.4l0.3,0.4h-0.4l-0.3-0.2h-0.4l-0.4,0.1l-0.5-0.1l0.1,0.3l1,0.4l0.2,0.3
		l0.3,0.1l-0.1,0.4l-0.3,0.3L280,425l-0.9,0.1l-0.1,0.2l-0.1,0.4l-0.4,0.6l-0.1,0.4v0.2l0.1,0.3l-0.1,0.3L278.6,428z"/>
	<path id="path16" class="st1" d="M287.4,421.3l-0.1,0.4l-0.1,0.3l0.1,0.2l0.4,0.2l0.5-0.2l0.1-0.3v-0.4l-0.5-0.2L287.4,421.3z"/>
	<path id="path18" class="st1" d="M281.9,433.3l0.5-0.5l0.4-0.4l0.2-0.2l0.2-0.3l0.2,0.2l0.2,0.2l0.2,0.4l-0.5,0.3l-0.6,0.4
		l-0.4,0.1l-0.4,0.1L281.9,433.3z"/>
	<path id="path20" class="st1" d="M283.4,430.9l0.1,0.2l0.2,0.2l0.1,0.2l0.2,0.2l0.2,0.1l0.3,0.1l0.1,0.3l0.2,0.3l0.2,0.2l0.4,0.2
		l0.2,0.5v0.4v0.4v0.2l-0.5,0.2l-0.6-0.2h-0.3h-0.4h-0.2l-0.3-0.1l-0.3,0.2l-0.2,0.2l0.3,0.2l0.4,0.2l0.5,0.2l0.6,0.2l0.5,0.5
		l0.1,0.2l0.4,0.3l0.2,0.2l0.2,0.3l0.1,0.5l0.8,0.5l0.3,0.1l0.2,0.1l0.1-0.4l-0.2-0.3l-0.4-0.5l-0.1-0.2l-0.2-0.2l-0.1-0.3l-0.2-0.2
		l-0.2-0.3l-0.1-0.3l0.4,0.1l0.2,0.2l0.1,0.4l0.2-0.2l0.2-0.4l0.1-0.2l0.3-0.1l0.2-0.2l0.2-0.2v-0.7l0.1-0.4l0.2-0.2l0.3-0.3
		l0.4-0.2l0.2-0.3l0.1-0.3l0.1-0.2l-0.5-0.2h-0.4l-0.5,0.2l-0.4,0.1l-0.2,0.2l-0.4,0.2l-0.3,0.4v0.4l-0.1,0.2L287,434l-0.1-0.5
		l-0.2-0.5l-0.2-0.5l-0.1-0.2l-0.3-0.1l-0.2-0.4l-0.2-0.2l-0.3-0.1l-0.5-0.1l-0.1-0.3l-0.2-0.2l-0.2-0.1l-0.3-0.1l-0.2-0.1l-0.3-0.1
		l-0.3-0.2L283.4,430.9z"/>
	<path id="path22" class="st1" d="M290.1,430.3v0.6l0.2,0.3l0.2,0.4l0.3,0.3l0.3,0.2l0.1,0.3v0.2l0.4,0.3l0.4,0.2l0.5,0.1h0.2
		l0.2-0.6l-0.4-0.1L292,432v-0.4l0.1-0.5l-0.1-0.3l0.4-0.1l0.3-0.1l0.1-0.4l0.1-0.3l0.1-0.5l0.1-0.2l0.2-0.2l0.2-0.2l0.1-0.4
		l0.4-0.1l0.4-0.2l0.2-0.2l0.1-0.7l-0.2-0.3h-0.5l-0.1-0.3l-0.2-0.5l0.1-0.3l0.1-0.4l0.2-0.4l0.2-0.6l0.1-0.6l0.2-0.2l0.3-0.2h0.2
		l0.3,0.2l0.4,0.5l0.2,0.4l0.2,0.2l0.2,0.3l0.4-0.7l0.1-0.5l0.3-0.3l0.3-0.3l0.5-0.1l0.2-0.1h0.2l0.3,0.1l0.3-0.3l0.1-0.4l0.2-0.4
		l0.1-0.3l0.4-0.2l0.2-0.1l0.3-0.1h0.2h0.2l0.4,0.1l0.3,0.1l0.2,0.3l0.6,0.2l-0.1-0.5l-0.2-0.2l-0.4-0.5l-0.2-0.2h-0.4h-0.2
		l-0.7-0.2h-0.2l-0.2,0.3l-0.4,0.2l-0.3,0.2l-0.3,0.5l-0.1,0.4l-0.5,0.2l-0.5,0.2l-0.3,0.1h-0.3l-0.2,0.1l-0.1,0.2l-0.2,0.2
		l-0.3-0.1h-0.2l-0.4-0.2l-0.2-0.2l-0.4-0.1l-0.2,0.1l-0.4,0.2l-0.2,0.2l-0.2,0.2l-0.2,0.4l-0.2,0.3l-0.1,0.2l-0.2,0.4l-0.2,0.1
		l-0.1,0.2l0.1,0.4l-0.1,0.5v0.5v0.3v0.2l0.1,0.3l0.1,0.2l0.1,0.3l0.2,0.2l-0.2,0.2l-0.3,0.3l-0.1,0.2l-0.2,0.3l-0.1,0.2l0.2,0.2
		l-0.3,0.3l-0.2,0.3l-0.3,0.3H291l-0.1-0.4l-0.5-0.2l-0.3,0.1L290.1,430.3z"/>
	<path id="path24" class="st1" d="M305.6,426.9v0.3l-0.2,0.2l-0.3,0.5l-0.1,0.3h-0.3l-0.1-0.3l-0.2-0.9l-0.1-0.4v-0.5v-0.4l0.1-0.5
		V425l0.1-0.3l0.2-0.3v-0.3l0.1-0.4v-0.3l0.1-0.4l-0.2-0.2l-0.2-0.1l-0.3-0.3l-0.3-0.4l-0.2-0.3l-0.2-0.1l-0.1-0.2l-0.4,0.1l0.2,0.3
		l0.2,0.3l0.2,0.4l0.2,0.1l0.1,0.5l0.1,0.3l0.2,0.2l-0.2,0.4l-0.1,0.3l-0.1,0.3l-0.2,0.3l-0.1,0.3l-0.1,0.3v0.2v0.2v0.2l-0.3,0.2
		l-0.2-0.2l-0.3-0.1l-0.2-0.2l-0.2-0.3l-0.2-0.3l-0.3-0.2h-0.2l-0.2,0.3l0.1,0.2l0.1,0.4l0.1,0.2l0.3,0.2l0.5,0.1l0.2,0.2l0.1,0.2
		l0.2,0.5l0.1,0.2l0.1,0.2l0.2,0.2l0.2,0.3l0.2,0.2l0.1,0.2v0.2v0.2l0.1,0.4l-0.1,0.4l-0.1,0.3l0.1,0.5l0.3,0.1l0.5-0.2l0.1-0.2
		l0.1-0.2h0.3l0.5,0.1l0.3-0.1l0.5-0.1l0.1-0.5V429v-0.3l0.4-0.3l0.3-0.2l0.2-0.2l0.5-0.2h0.4h0.6h0.5l0.2-0.2l0.1-0.6l-0.1-0.2
		l0.2-0.4l0.2-0.3l0.2-0.2l0.4-0.3l0.4-0.2l0.5-0.1l0.2,0.1h0.2l0.1-0.4l0.3-0.5l0.2-0.2l0.5-0.8l0.3-0.2l0.3-0.1l0.5-0.2h0.2h0.4
		l0.3-0.2l0.1-0.3l0.5-0.4h0.4h0.2l0.2,0.1l0.3,0.1l0.5,0.3l0.1,0.4l0.2,0.2l0.2-0.1l0.3-0.1h0.3l0.4,0.3l0.1,0.3l0.1,0.3l-0.1,0.2
		v0.3l0.5,0.1l0.7-0.1l0.4,0.1l0.2,0.1l0.1,0.3l0.2,0.3l0.1,0.3h0.4l0.5-0.1l0.2,0.3l0.1,0.7l-0.1,0.2l-0.2,0.2l0.3,0.2l0.3,0.2
		l0.3,0.4v0.3v0.2l-0.1,0.2v0.3v0.3l-0.3,0.2l-0.3,0.2l0.2,0.3l0.3-0.1l0.3-0.1l0.2-0.3l0.3-0.4l0.1-0.5V428v-0.3v-0.4l-0.1-0.2
		l-0.3-0.5l-0.2-0.2l0.1-0.5l0.1-0.2l-0.1-0.4l-0.2-0.2l-0.2-0.3l-0.3-0.2h-0.2h-0.5l-0.1-0.4l-0.4-0.3l-0.3-0.1l-0.2-0.1l-0.2-0.1
		h-0.2l-0.1-0.3l-0.1-0.2l-0.2-0.3l-0.3-0.2l-0.2-0.2h-0.2h-0.2l-0.4-0.1l-0.2-0.1l-0.5-0.1l-0.2-0.7l-0.1-0.3l-0.3-0.2l-0.2-0.2
		h-0.7h-0.2l-0.5,0.1l-0.2,0.3l-0.1,0.3l-0.3-0.1h-0.5l-0.3,0.2l-0.3,0.2l-0.4,0.1h-0.2l-0.2,0.2l-0.2,0.1l-0.2,0.4l-0.1,0.2
		l-0.2,0.5l-0.3,0.5v0.4l-0.2,0.2l-0.1,0.3l-0.4-0.1h-0.4l-0.2,0.2l-0.4,0.1l-0.2,0.1l-0.3,0.3l-0.1,0.2l-0.2,0.4l-0.1,0.2l-0.4,0.2
		l-0.5,0.2l-0.5,0.1l-0.1,0.2l-0.1-0.4L305.6,426.9z"/>
	<path id="path26" class="st1" d="M312.9,430.7l0.8,0.1l0.2,0.1l0.2,0.2l0.3,0.2l0.4,0.1l0.3,0.1l0.3,0.1l0.5,0.1h0.2h0.4l0.4-0.1
		h0.3l0.5,0.2l0.5-0.1l-0.2-0.3l-0.4-0.2l-0.8-0.4l-0.6-0.3l-0.2-0.2l-0.4-0.1h-0.3l-0.5-0.1l-0.2-0.1l0.1-0.2l0.2-0.2l0.2-0.3
		l0.1-0.3l0.1-0.4l0.3-0.5l-0.2-0.5l-0.2-0.3l-0.2-0.5l-0.1-0.4V426l-0.4,0.6v0.3l-0.1,0.5v0.2l0.1,0.2v0.3l-0.1,0.4l-0.2,0.3
		l-0.2,0.2l-0.3,0.3l-0.3,0.5l-0.2,0.2l-0.2,0.2L312.9,430.7z"/>
	<path id="path28" class="st1" d="M325.3,433.4l-0.3,0.4l-0.4,0.4l-0.2,0.5l0.4,0.1h0.2l0.3,0.1v0.3v0.3l0.2,0.3h0.6l0.1,0.2v0.3
		h0.6l0.1,0.6l-0.5,0.1l-0.2,0.1l-0.2,0.3v0.5l0.2,0.3l0.4,0.2h0.2l0.1,0.4l-0.1,0.5l0.1,0.3l-0.2,0.3l-0.2,0.2l-0.3,0.2l-0.2,0.4
		l0.1,0.2l-0.1,0.2l-0.3,0.1h-0.3l-0.2,0.2l0.2,0.4l-0.2,0.2l-0.3,0.5l-0.5,0.1l-0.6-0.1l-0.2,0.1v0.2l0.1,0.3l-0.5,0.1l-0.3,0.2
		l-0.3,0.2v0.4l0.1,0.3l0.5,0.1l0.3-0.1l0.4-0.1l0.8,0.2h0.2l0.3-0.1h0.3h0.2l0.3,0.3l0.3-0.1l0.3,0.3l0.1,0.2l0.2,0.2h0.3l0.2,0.3
		l0.2,0.5v0.6l-0.1,0.3l-0.1,0.3l-0.1,0.4l-0.3,0.3l-0.2,0.6v0.2l-0.2,0.7l0.1,0.5v0.3l-0.1,0.2l-0.3,0.3l-0.4,0.2h-0.2h-0.4
		l-0.3-0.1H325l-0.4-0.1l-0.3-0.1H324l-0.4,0.1l-0.1,0.3l0.2,0.3l0.5,0.2l0.7,0.1l0.4,0.1h0.5h0.7l0.5-0.1l0.1-0.2l0.1-0.3v-0.2
		l0.2-0.3h0.2l0.3-0.2l0.2-0.1l0.2-0.3l0.1-0.2l0.2-0.5V449v-0.3l0.4-0.3l0.3-0.5l0.1-0.3v-0.4l-0.1-0.2l0.1-0.6l-0.1-0.5l-0.2-0.2
		l-0.1-0.2l-0.1-0.2l-0.1-0.2l-0.2-0.2l-0.4-0.3l-0.3-0.3l-0.2-0.2l-0.2-0.1l-0.2-0.3l-0.1-0.2l0.3-0.1l0.2-0.1l-0.2,0.1l-0.1-0.2
		l-0.4,0.1h-0.4h-0.6h-0.2h-0.2l-0.3-0.3l0.1-0.3l0.2,0.1l0.4,0.1h0.2h0.2l0.3-0.2v-0.3l0.1-0.2v-0.4l0.1-0.2V441l0.3-0.2l0.3-0.2
		l0.3-0.4l0.4-0.2l0.1-0.6l-0.1-0.3l0.1-0.5l0.1-0.5v-0.4l-0.1-0.4l-0.1-0.4l-0.1-0.3l-0.2-0.4l-0.1-0.4l-0.1-0.4l-0.2-0.3l-0.2-0.3
		l-0.1-0.2l-0.2-0.2l-0.2-0.2l-0.2-0.1l-0.4-0.3l-0.2-0.4l-0.2-0.2l-0.2-0.2L325.3,433.4z"/>
	<path id="path30" class="st1" d="M342,449.9l-0.2,0.5l-0.1,0.3l-0.1,0.5v0.5l-0.2,0.4v0.3l0.2,0.4l-0.2,0.3l-0.3,0.2l-0.2,0.1
		l-0.2,0.2l-0.2,0.4l-0.2,0.2l-0.2,0.1l-0.1,0.3l-0.2,0.4l-0.1,0.4l-0.3,0.5V455v-0.4l-0.1-0.4v-0.3v-0.3l0.1-0.3l0.4-0.3l0.2-0.2
		l0.3-0.3l0.2-0.2l0.1-0.3l0.1-0.5v-0.5l-0.6-0.1v-0.2l-0.2-0.3l0.2-0.2l0.5-0.1l0.2-0.7v-0.7l-0.2-0.5l-0.1-0.5l-0.1-0.4l0.1-0.3
		l0.2-0.3l-0.1-0.5l-0.3-0.4l-0.1-0.3l-0.5-0.1h-0.3h-0.2l-0.6,0.1l-0.2-0.4l-0.1-0.4l-0.2-0.2h-0.5l-0.3-0.1l-0.2-0.2l-0.2-0.2
		l-0.4-0.1l-0.3-0.1l-0.4,0.1l-0.4,0.2l-0.3-0.3l-0.4-0.2h-0.2l-0.2,0.3l-0.3-0.1l-0.2-0.2l-0.2-0.3h-0.4l-0.6-0.1h-0.5l-0.3,0.1
		h-0.4l-0.5,0.1h-0.5l-0.5-0.1h-0.4l-0.4-0.1l0.2-0.3l0.5-0.4l0.2-0.3l0.1-0.2l0.3-0.3l0.3-0.5l0.2-0.3v-0.2l0.1-0.3l0.3-0.3
		l-0.3-0.2l0.2-0.4l0.3-0.1l0.2-0.1l0.4-0.4l0.3-0.3l0.2-0.2l0.3-0.1l0.2-0.2l0.4-0.2l-0.4,0.2l0.1,0.5l-0.1,0.3v0.4l-0.2,0.2
		l-0.2,0.1l-0.2,0.4l-0.1,0.2l-0.2,0.3l-0.1,0.5v0.2l-0.1,0.2l-0.1,0.2l-0.4-0.1h-0.4l-0.2,0.5l0.1,0.2l-0.4,0.5h0.6l0.2-0.1
		l0.5-0.3l0.7,0.2l0.8,0.1h0.4l0.2,0.1l0.3,0.1l0.5,0.3h0.7h0.5l0.4,0.1l0.4-0.4l0.3-0.4l0.7,0.1l0.6,0.1l0.4-0.1l0.4,0.1h0.2
		l0.3-0.4l0.3-0.3l0.2-0.2l0.8,0.1l0.3-0.2l0.1-0.2l0.2-0.3l0.3-0.1l0.5-0.1l0.4-0.1l0.2-0.2l0.1-0.3v-0.6l0.1-0.4l0.2-0.6v-0.2
		l0.1-0.2l0.2-0.2h0.2l0.1,0.5l-0.1,0.5h0.2l0.3-0.1l0.2-0.2l0.3-0.3l0.3-0.3l0.1-0.3l0.1-0.2l0.1-0.3l0.1-0.3l0.4,0.2v0.5l-0.2,0.3
		l-0.1,0.2l-0.2,0.3l0.2,0.3v0.2l0.3-0.2l0.3-0.2l0.5-0.2l0.3-0.2l0.5-0.2l0.2-0.3l0.2-0.3l0.1-0.3l0.1-0.2l0.1-0.3l0.2-0.1l0.2,0.1
		l0.2,0.4l0.1,0.3l-0.2,0.5l-0.1,0.3l-0.2,0.2l-0.2,0.2l-0.4,0.3l-0.3,0.2l-0.2,0.2l-0.4,0.5h0.8l0.4-0.1l0.2-0.2h0.8l0.7,0.1
		l0.4,0.2l0.3,0.4l0.1,0.3l0.3,0.2l0.1,0.2v0.3v0.5l0.1,0.3l-0.1,0.3l-0.2,0.2l-0.3,0.1L350,442l-0.1-0.3v-0.5l-0.2-0.4l-0.3,0.1
		l-0.2-0.4v-0.2h-0.3l-0.6-0.1l-0.1,0.3l-0.3,0.2l-0.6,0.2h-0.2l-0.2,0.1h-0.3h-0.2l-0.2-0.4l0.2-0.3l-0.4,0.2l-0.2,0.1h-0.3
		l-0.5,0.2h-0.2h-0.4L344,441l-0.2,0.2l-0.2,0.1l-0.2,0.3l-0.5,0.1l-0.3,0.2l-0.2,0.1l-0.3,0.2l-0.2,0.2l-0.3,0.1l-0.5,0.2l-0.5,0.1
		l-0.4,0.3l-0.4,0.1h-0.4l-0.5,0.1h-0.6H338l-0.2,0.1v0.3l0.4,0.2h0.4l0.5,0.1l0.5,0.3l0.2,0.4l0.5,0.1l0.4,0.2l0.2,0.5l0.5,0.8
		l0.5,0.1l0.5,0.4l0.1,0.2l0.1,0.4L342,449.9z"/>
	<path id="path32" class="st1" d="M350.1,447.4l0.1,0.4l0.4,0.2l0.2,0.1l0.1,0.2l0.1,0.2l0.2,0.1l0.2,0.2l0.2,0.3v0.2l0.1,0.4
		l0.2,0.2l0.3,0.2l0.2,0.5l-0.1,0.3l0.1,0.3v0.4l0.1,0.4v0.5v0.3l-0.1,0.3l0.5-0.2l0.2-0.3v-0.3l0.1-0.3l0.2-0.3l0.2-0.4l0.2-0.5
		l-0.2-0.5l-0.1-0.2l-0.4-0.8l-0.1-0.2l0.5,0.1l0.5,0.1l0.4-0.1l0.4,0.2l0.4,0.2l0.7,0.3l0.5,0.1l-0.1-0.5l-0.7-0.4l-0.5-0.5
		l-0.2-0.2l-0.5-0.1l-0.5-0.2l-0.2-0.1l-0.2-0.2l-0.5-0.2l-0.4-0.3l-0.1-0.4l0.6-0.4l0.2-0.4l0.1-0.5l0.5-0.3l0.6-0.3l0.2-0.5
		l-1,0.4l-0.2,0.1l-0.4,0.5l-0.2,0.4l-0.2,0.2l-0.2,0.3l-0.4,0.4l-0.5,0.1l-0.4-0.1l-0.4-0.4h-0.2l-0.3,0.4L350.1,447.4z"/>
	<path id="path34" class="st1" d="M347.8,450.8h0.4h0.4l0.3,0.2l0.1,0.2l0.2,0.3l0.1,0.5v0.4v0.4v0.2l0.3,0.3l0.5,0.1h0.5l0.3,0.4
		v0.3l-0.1,0.5l-0.1,0.4h0.6l0.4-0.1h0.4l0.5-0.2l0.7,0.2l-0.1,0.3h-0.2l-0.5,0.1h-0.6l-0.5,0.3l0.4,0.4l0.2,0.2l0.1,0.4l-0.1,0.6
		l-0.4,0.3l-0.2,0.4v0.3l-0.2,0.4l-0.2,0.3l-0.2,0.2l-0.1,0.3l0.2,0.3l0.4-0.2l0.2,0.2l0.1,0.4l-0.1,0.2v0.3v0.2l-0.3,0.2H351
		l-0.2,0.1v0.3l-0.1,0.4l0.1,0.5l-0.6,0.4l-0.2,0.2l0.1,0.4v0.2l0.1,0.2l-0.2,0.3l-0.2,0.1l-0.2,0.1l-0.3,0.1l-0.1-0.3l-0.1-0.4
		v-0.3l0.1-0.3l0.3-0.3l0.2-0.2l0.2-0.4l0.2-0.5l0.1-0.2V461v-0.3l-0.1-0.4l0.1-0.2l-0.1-0.4l0.1-0.5l0.1-0.4l0.3-0.2l0.1-0.2
		l-0.1-0.2l-0.1-0.2l0.1-0.3l0.2-0.5l0.1-0.5v-0.2h-0.4l-0.3-0.2l-0.2-0.4v-0.2v-0.2V455l0.1-0.5v-0.3L350,454l-0.3-0.1l-0.3,0.1
		l-0.5-0.1l-0.2-0.2l-0.1-0.2l-0.1-0.2v-0.2l-0.5-0.5l-0.2-0.2l0.1-0.5l0.1-0.2l0.1-0.3l0.1-0.2h-0.5L347.8,450.8z"/>
	<path id="path36" class="st1" d="M337.1,456.4l0.4-0.2l0.3-0.1h0.4l0.3,0.1l0.5,0.4l-0.1,0.2l-0.2,0.4l-0.3,0.1l-0.1-0.2l-0.2-0.4
		l-0.5,0.1l-0.3,0.1l-0.3,0.2l-0.2-0.2L337.1,456.4z"/>
	<path id="path38" class="st1" d="M340.2,458l0.1-0.3v-0.3l0.2-0.3l0.2-0.1l0.2-0.1l0.6,0.1l0.5-0.1l0.4-0.1l0.4-0.3l0.4-0.3
		l0.3-0.1l0.5-0.2l0.1-0.4l0.3-0.5l0.2-0.2l0.3-0.2l0.3-0.3l0.2-0.3l0.2-0.2h0.5l-0.1,0.7l-0.2,0.5l-0.2,0.2l-0.2,0.1l-0.1,0.2
		l-0.1,0.3l0.4,0.2h0.2l0.7,0.1l0.4,0.3l-0.1,0.5l-0.3,0.1h-0.9l-0.4-0.2l-0.5-0.1l-0.1,0.4l0.1,0.4l0.2,0.5v0.4l-0.1,0.4v0.2
		l-0.4,0.3l-0.3-0.1l-0.2-0.2l-0.1-0.5v-0.2l0.1-0.3l0.1-0.2v-0.2l-0.1-0.2l-0.3-0.2l-0.2,0.2l-0.2,0.4v0.2l0.1,0.4v0.4v0.2
		l-0.4,0.1l-0.4-0.2l-0.1-0.3l0.1-0.3l0.1-0.2l0.2-0.3l-0.2-0.2l-0.3,0.1h-0.3l-0.4,0.1l-0.3,0.1l-0.3,0.2l-0.3,0.5h-0.2L340.2,458z
		"/>
	<path id="path40" class="st1" d="M344.8,460.6l0.7,0.4l0.2,0.3v0.3v0.2l-0.1,0.5l-0.4,0.3l-0.2,0.2l-0.3,0.2l-0.4,0.2l-0.2,0.1
		l-0.4,0.2l0.1-0.3l0.3-0.5l0.2-0.4l0.2-0.3l0.1-0.2v-0.3l0.1-0.3l-0.1-0.2L344.8,460.6z"/>
	<path id="path42" class="st1" d="M343.8,464.9l0.3-0.3h0.4l0.5,0.3l0.3,0.1v0.3l-0.2,0.3l-0.3,0.3l-0.1,0.4l-0.1,0.3l-0.2,0.5
		l-0.1,0.2l0.7-0.3l0.2,0.1l0.4-0.1h0.5l0.7-0.1l0.2-0.2l0.7-0.5l-0.4,1.1l-0.6,0.3l-0.2,0.1l-0.5,0.1l-0.7,0.1l-0.4,0.2l-0.5,0.1
		l-0.5,0.3l-0.4,0.1l-0.4,0.1l-0.2-0.2l-0.1-0.4l0.2-0.5l0.2-0.4l0.2-0.2l0.2-0.1l0.1-0.4l0.5-0.4l0.1-0.4l-0.3-0.3L343.8,464.9z"/>
	<path id="path44" class="st1" d="M347.1,468.6l0.7,0.1l0.1,0.2l0.6,0.2l0.7,0.2h0.2l0.4-0.2l0.5-0.3l0.2-0.2l0.4-0.1h0.6h0.4h0.5
		h0.2l0.5,0.2l0.2,0.2l-0.5-0.1l-0.5,0.2l-0.2,0.1l-0.6,0.2l-0.5-0.1l-0.2,0.1l0.4,0.4l0.2,0.1l0.5,0.1l0.4,0.1l0.1,0.2l0.1,0.2
		l0.3,0.3l0.2,0.1l0.3,0.2l0.3,0.3l0.3-0.3l0.1-0.3l0.1-0.4l0.2-0.4l0.5,0.2v0.5l-0.2,0.7l-0.2,0.5l0.3,0.4l0.2,0.5l0.2,0.5
		l-0.1,0.3l-0.1,0.2l-0.4-0.3l-0.3-0.3l-0.2-0.3l-0.3-0.1l-0.2-0.3h-0.4l-0.6-0.2l-0.1-0.2l-0.3-0.4v-0.4l-0.1-0.4l-0.3-0.2
		l-0.4-0.2l-0.3-0.2l-0.5-0.2l-0.2-0.2l-0.4,0.1l-0.6,0.1h-0.5l-0.5-0.3l-0.4-0.1l-0.4-0.3l-0.5-0.3L347.1,468.6z"/>
	<path id="path46" class="st1" d="M350.9,473l0.4-0.2l0.5-0.2h0.3l0.2,0.3l-0.1,0.3l-0.2,0.2l-0.3,0.3c0,0,0-0.4-0.4-0.2
		c-0.4,0.2-0.5-0.1-0.5-0.1L350.9,473z"/>
	<path id="path48" class="st1" d="M338.9,482.5l0.3,0.3h0.2h0.2l0.2-0.1l0.2,0.1h0.4l0.3-0.2l0.3-0.2l0.2-0.2l0.2-0.4l0.1-0.2
		l-0.1-0.6v-0.5l0.5-0.2l0.7-0.1l0.2-0.2l0.4-0.5l0.1-0.3l0.2-0.4l0.3-0.1h0.3l0.3-0.1l0.3-0.3l0.1-0.3l0.1-0.3l0.5-0.1l0.4-0.2
		l0.2-0.3l0.1-0.2l0.1-0.6l0.5,0.1l0.2-1l-0.1-1.1l-0.1-0.2l0.6,0.1l0.1-0.5v-0.6l-0.1-0.3l-0.1-0.3l-0.2-0.4l-0.4-0.5l-0.1-0.2
		l-0.2-0.2l-0.4-0.3l0.2,0.4l0.1,0.3l0.3,0.5v0.4v0.2l-0.3,0.4l-0.2,0.2v0.2l0.2,0.4l0.1,0.4l0.1,0.2l-0.1,0.4h-0.4h-0.4l-0.4,0.4
		l0.1,0.6l-0.1,0.3l-0.2,0.2l-0.5,0.1l-0.1,0.5v0.2h-0.3h-0.2l-0.3,0.1l0.1,0.2l0.1,0.2l-0.1,0.4l-0.1,0.2l-0.3,0.1l-0.4,0.1h-0.3
		l-0.3,0.1l-0.2,0.3l0.2,0.4v0.2l-0.5,0.1l-0.2-0.1h-0.2v0.2l-0.2,0.2l-0.1,0.2l-0.2,0.1l-0.3,0.1l-0.2,0.1v0.4l-0.3,0.4l-0.1,0.5
		l-0.8,0.2L339,482l-0.4,0.1L338.9,482.5z"/>
	<path id="path50" class="st1" d="M333.9,462.5l0.5-0.2h0.7l0.7,0.3l0.1,0.4l0.1,0.2l0.1,0.3v0.3l0.3,0.1l0.4-0.1h0.5h0.3l0.3,0.2
		l0.2,0.2l0.1,0.2l0.2,0.4l0.4-0.1l0.3-0.1l0.5,0.2l0.2,0.2l0.1,0.3l0.2,0.4l0.1,0.3l0.1,0.7l-0.1,0.3l-0.2,0.5v0.2l0.3,0.2l0.4,0.2
		v0.2l-0.1,0.5v0.3l-0.1,0.2l-0.2,0.2l-0.2,0.2v0.5l-0.2,0.2h-0.4l-0.2-0.1l-0.1,0.5l-0.4,0.1h-0.4l-0.3-0.1l-0.5,0.1l-0.5,0.2
		l-0.2,0.2l-0.5,0.2l-0.4,0.2l-0.1,0.3l-0.3,0.3l-0.2,0.1l-0.3,0.1h-0.3l-0.2,0.2l-0.4,0.3l-0.3,0.2l-0.2,0.1l-0.4,0.1H333h-0.2
		h-0.4h-0.2h-0.3h-0.2v0.3l0.3,0.2l0.2,0.1l0.4,0.4l0.3,0.3l0.3,0.2h0.3l0.2,0.2l0.4,0.5h0.2l0.4,0.1l0.1,0.2l0.2,0.2l0.3,0.2
		l0.6,0.1h0.2h0.2l0.4,0.1l0.1,0.2l0.1,0.3l0.1,0.2l0.3,0.1l0.4,0.2l0.2,0.3l-0.5-0.2l-0.9-0.4h-0.2l-0.4-0.4l-0.4-0.2l-0.2,0.1
		l-0.5-0.1l-0.2-0.3l-0.2-0.1l-0.5-0.2l-0.3-0.2l-0.5-0.1l-0.4-0.5l-0.4-0.5H332l-0.5-0.3l-0.3-0.2l-0.2-0.2l-0.2-0.3l-0.5-0.2
		l-0.3-0.3V473l0.2-0.1l0.3-0.5l0.7-0.1l1.1,0.1l0.4-0.1l0.5-0.4l0.5-0.3h0.4h0.3l0.5,0.1l0.4,0.1h0.5l-0.2-0.3l0.7-0.4l0.3-0.2
		l0.3-0.2v-0.2l0.1-0.3l0.1-0.2l0.5-0.1h0.2h0.5l0.5-0.2l0.3-0.1l0.3-0.4v-0.3v-0.4v-0.3v-0.5l0.2-0.2l0.1-0.5v-0.3l-0.2-0.3
		l-0.2-0.2l-0.2-0.2l-0.2-0.3l-0.4-0.2h-0.5h-0.4h-0.3l-0.2,0.1h-0.4l-0.3-0.3l-0.1-0.5v-0.2l-0.2-0.2l-0.2-0.5H335l-0.2-0.2
		l-0.3-0.3l-0.2-0.2l-0.5-0.2L333.9,462.5z"/>
	<path id="path52" class="st1" d="M332.1,477.4l0.2,0.2l0.2,0.2l0.5,0.2l0.2,0.3l0.3,0.4l0.4,0.1h0.4l0.2,0.1l0.1,0.2l0.2,0.4
		l0.4-0.1l0.8,0.2l-0.3,0.4l0.2,0.3l0.5,0.5h0.4h0.3l0.4-0.1l0.5,0.1l-0.2,0.5l-0.2,0.6v0.4l-0.1,0.4l0.4,0.5l0.4,0.1h0.3l-0.1,0.3
		l-0.4,0.2l-0.3,0.1v0.5l0.5,0.2l0.4,0.2l-0.4,0.2l-0.6,0.1v0.5l0.2,0.3l0.2,0.3l0.1,0.3l-0.1,0.3l-0.3,0.1l-0.4-0.4l-0.1-0.4
		l-0.2-0.4v-0.4v-0.5l-0.1-0.2l-0.1-0.5h-0.6l-0.4,0.2l-0.2-0.4l0.1-0.3l0.1-0.2l0.4-0.2h0.3l0.1-0.4l-0.1-0.5l-0.2-0.2l-0.3-0.1
		l-0.5-0.1l-0.2-0.4l-0.3-0.3l-0.3-0.2l-0.5,0.1l-0.2-0.3v-0.5h-0.3l-0.5-0.1l-0.2-0.2l-0.2-0.2l-0.4-0.2l-0.3-0.2l-0.3-0.2
		l-0.2-0.4l-0.2-0.3l-0.2-0.3l-0.5-0.2l-0.3-0.3l-0.4-0.3l-0.3-0.3l-0.2-0.3l-0.3-0.4l-0.1-0.2l-0.2-0.3l-0.1-0.2l-0.2-0.3l-0.1-0.3
		l-0.2-0.2l-0.1-0.5l-0.2-0.3l-0.1-0.4l-0.1-1.1l0.4,0.4l0.3,0.5l0.3,0.5l0.4,0.3l0.3-0.1l0.1,0.4v0.3l0.1,0.6l0.4,0.2l0.2,0.5
		l0.4,0.4h0.2l0.5,0.4L332.1,477.4z"/>
	<path id="path54" class="st1" d="M325.3,479.3l0.8,0.1l0.7,0.1l0.3,0.3l0.1,0.2l0.3,0.2l0.2,0.4l0.2,0.2l0.5,0.2h0.4l0.5-0.1
		l0.1,0.2l-0.2,0.6L329,482v0.3l0.1,0.5v0.3l0.2,0.3l0.1,0.4l-0.3,0.3h-0.4l-0.3,0.2v0.5l-0.1,0.3v0.4l0.1,0.3v0.3l-0.5,0.2
		l-0.2,0.1l-0.2,0.1l-0.2,0.3l-0.4,0.4l0.2,0.2h-0.4l-0.2-0.3l0.2-0.4l0.2-0.1l0.4-0.3l0.2-0.3l0.2-0.4l-0.1-0.4V485v-0.4l-0.1-0.5
		v-0.2l0.2-0.4v-0.6v-0.3l-0.2-0.4l0.1-0.3l-0.3-0.3l-0.4-0.2l-0.1-0.4l-0.2-0.2l-0.2-0.4l-0.1-0.2l-0.1-0.2l-0.2-0.1l-0.4-0.3
		L325.3,479.3z"/>
	<path id="path56" class="st1" d="M329.8,481.9v0.4v0.5v0.3l0.1,0.2l0.2,0.3l0.7,0.5l0.3-0.1h0.3v-0.4v-0.4l-0.4-0.1l-0.5-0.1
		l-0.3-0.3l-0.2-0.2l-0.1-0.3L329.8,481.9z"/>
	<path id="path58" class="st1" d="M318,481.1l0.2,0.4l0.4,0.2h0.3l1.1-0.1h0.4l0.3,0.1h0.3l0.2-0.1l0.2-0.4v-0.3l0.6,0.1h0.4h0.4
		l0.4-0.1l0.6-0.1h0.3l0.4-0.3v-0.2l0.1-0.5v-0.3l-0.2-0.6l0.2-0.8l0.1-0.4l0.1-0.4l0.3-0.2l0.2-0.3l0.1-0.5v-0.6l-0.1-0.4l-0.1-0.3
		l-0.2-0.5h-0.5l-0.2-0.5l0.3-0.5l0.1-0.4v-0.4l-0.1-0.4l-0.1-0.2l-0.2-0.4l-0.3-0.2l-0.4-0.3v-0.4l0.2-0.3v-0.5l-0.3-0.2l-0.3,0.3
		l-0.2,0.2l-0.1,0.3v0.4l0.1,0.4l0.1,0.2l0.1,0.2l0.3,0.8v0.4l0.1,0.3l-0.1,0.4l-0.3,0.1l-0.3,0.1l-0.3-0.1l-0.5-0.1l-0.1-0.4
		l-0.3-0.6l-0.2-0.1l-0.1,0.4l0.2,0.3l0.2,0.5l0.2,0.4l0.4,0.3h0.5h0.3h0.3v0.2l-0.3,0.3l-0.1,0.3l0.1,0.2h0.4l0.2,0.3v0.3l-0.2,0.2
		l-0.1,0.2l-0.1,0.3l0.2,0.4v0.3l-0.1,0.2l-0.1,0.5l-0.2,0.5v0.2l-0.5,0.1l-0.1,0.3l-0.1,0.2l-0.4,0.2h-0.3l-0.2,0.1h-0.4h-0.4
		l-0.2,0.2v0.4l-0.3,0.1l-0.4-0.1l-0.1-0.3l-0.1-0.3H320l-0.2,0.2l-0.1,0.5l-0.2,0.1l-0.5,0.2l-0.5,0.1L318,481.1z"/>
	<path id="path60" class="st1" d="M317.7,476l0.1,0.4l0.1,0.4l0.2,0.4l0.2,0.5l0.3,0.2l0.1,0.2l-0.1,0.5l0.1,0.5l0.1,0.3h-0.6
		l-0.3,0.1h-0.2h-0.2l-0.4-0.1l-0.1-0.6l-0.2-0.2V478l-0.1-0.5v-0.3l0.1-0.3l0.2-0.3l0.2-0.2l0.3-0.3L317.7,476z"/>
	<path id="path62" class="st1" d="M317.7,475.4l0.2-0.5l0.2-0.4l0.2-0.3l0.3-0.4l0.2-0.2l0.2-0.4l0.2-0.5l-0.2-0.2l-0.4,0.3
		l-0.3,0.5l-0.2,0.2l-0.1,0.4l-0.2,0.3l-0.1,0.3l-0.1,0.2l-0.3,0.3l-0.1,0.2L317.7,475.4z"/>
	<path id="path64" class="st1" d="M309.2,475.6l0.4,0.1l0.3-0.3l0.2-0.6h0.2l0.5-0.8l0.2-0.1l0.3-0.6l0.1-0.4l0.3-0.3l0.3,0.2
		l0.2-0.5l0.4-0.5l0.3-0.5l0.2-0.4l0.4-0.5l0.4-0.2l-0.1,0.7l-0.2,0.1l-0.3,0.3l-0.1,0.2l0.4,0.1l0.3,0.2l0.2,0.3l0.1,0.4l-0.1,0.4
		v0.2l-0.5,0.2v-0.7l-0.4-0.5l-0.3,0.2l-0.4,0.5l-0.3,0.5l-0.3,0.3l-0.3,0.4l-0.5,0.5l-0.3,0.4l-0.2,0.5l-0.4,0.2l-0.4,0.3l-0.4,0.2
		h-0.3l-0.4-0.3v-0.3h0.4L309.2,475.6z"/>
	<path id="path66" class="st1" d="M317.5,481.7v0.7l-0.1,0.5l-0.3,0.2l-0.4,0.4l-0.1,0.3h-0.4l-0.5,0.2l-0.5-0.1h-0.5h-0.5h-0.4
		l-0.5,0.1l-0.4,0.1l-0.3,0.4l-0.3,0.5l-0.3,0.2l-0.3,0.2l-0.4,0.1l-0.2,0.2l-0.2,0.4l-0.1,0.2l-0.3,0.2l-0.3,0.1h-0.5l-0.1,0.3
		l-0.1,0.2l-0.4,0.1l-0.2,0.1l-0.1,0.2l-0.1,0.5l-0.1,0.3l-0.1,0.2l-0.1,0.2l-0.5,0.1h-0.5l-0.4-0.2H307h-0.3l0.1,0.3v0.2l0.1,0.3
		l0.2,0.1h0.3v0.2l0.2,0.3l0.3,0.3l0.2,0.1l0.3,0.1l0.1,0.3l0.1,0.4l0.2,0.2v0.3l0.1,0.2l0.2,0.3l0.2,0.3l0.4,0.1l0.1,0.4l0.2,0.2
		l0.5,0.2l0.3,0.1h0.3l0.3-0.1l0.1-0.3l-0.3-0.1l-0.2-0.2l-0.2-0.2l-0.1-0.2l-0.2-0.2l-0.2-0.4l0.3-0.1l0.4,0.1l0.3,0.1l0.2,0.1
		l0.5-0.2l0.4-0.3v-0.3l-0.2-0.3h-0.2h-0.3l-0.3,0.1L311,491l-0.4-0.2l-0.1-0.4l-0.2-0.3H310l-0.5-0.5l-0.1-0.2l-0.2-0.3l-0.1-0.2
		l0.2-0.3l0.2-0.2l0.2-0.2l0.3-0.4l0.2-0.1l0.4-0.2l0.2-0.2l0.3-0.2l0.4-0.1h0.2l0.3-0.1l0.1-0.2l0.2-0.4l0.2-0.2l0.1-0.3l0.4-0.1
		l0.3-0.1h0.3l0.4,0.1h0.2h0.4l0.3-0.2l0.2-0.3l0.1-0.2l0.4-0.1l0.2-0.1h0.3l0.3,0.1l0.3-0.1h0.2l0.2-0.1l0.1-0.2l0.2-0.3l0.2-0.2
		h0.3l0.1-0.5l0.1-0.4l-0.1-0.2l0.1-0.2v-0.2l-0.1-0.3l-0.3-0.4L317.5,481.7z"/>
	<path id="path68" class="st1" d="M320.6,486.6v0.5c0,0,0,0.4-0.1,0.7c-0.1,0.2-0.1,0.5-0.1,0.5l0.1,0.5l0.3,0.3l0.2,0.1l0.3,0.1
		l0.3,0.1l0.4-0.1l0.1-0.3l-0.1-0.4l-0.4-0.2l-0.3-0.2l-0.1-0.3v-0.2l-0.1-0.5l-0.1-0.5L320.6,486.6z"/>
	<path id="path70" class="st1" d="M325.2,488.4l-0.1,0.3l-0.4,0.1h-0.5l-0.2-0.2l-0.2,0.3v0.3l-0.1,0.2l-0.2,0.1l-0.3,0.2h-0.3
		l-0.2,0.2l-0.3,0.3l-0.4,0.1h-0.2l-0.3-0.1H321h-0.5h-0.3l-0.5,0.3l-0.2,0.4l-0.3,0.1l-0.4,0.1h-0.2h-0.3l0.3,0.2l0.4,0.3l0.5,0.1
		l0.3-0.1l0.3-0.1l0.2-0.2l0.2-0.1l0.4-0.2h0.2l0.2,0.2h0.4h0.4h0.2l0.2-0.4l0.1-0.2h0.2h0.4l0.3-0.1l0.4-0.2l0.2-0.2l0.1-0.3
		c0.3,0.1,0.6,0.1,0.6,0.1l0.2-0.2l0.2-0.3l0.1-0.2L325.2,488.4z"/>
	<path id="path72" class="st1" d="M317.7,491.4l-0.2,0.6v0.5v0.4l0.1,0.5c0,0,0.2,0.3,0,0.5c-0.2,0.2-0.2,0.6-0.2,0.6l-0.1,0.3
		l-0.3,0.1l-0.3,0.1l-0.1,0.5l-0.2,0.3l-0.3,0.1l-0.1,0.4l-0.5,0.1L315,496l-0.3-0.1h-0.5l-0.3,0.1l-0.4,0.2l-0.5,0.3l-0.5-0.1
		l-0.3-0.1h-0.4l-0.4-0.1H311l-0.4-0.1l-0.5-0.1l-0.5-0.3l-0.4-0.4v0.6l0.1,0.4l0.1,0.5l0.2,0.5l-0.1,0.5v0.4l-0.1,0.3v0.4l-0.1,0.4
		l-0.1,0.3l-0.2,0.5l0.1,0.3l0.1,0.2l0.2,0.2l0.1,0.3l0.2,0.5v0.6l-0.2,0.5l0.2,0.3h-0.5l-0.3,0.1l-0.3-0.1l-0.2,0.1l-0.2,0.1
		l-0.1,0.4l-0.4,0.4h-0.2h-0.3l-0.2,0.3l-0.2,0.4l-0.4,0.1l-0.3-0.1h-0.3L306,505v0.4l-0.1,0.3l-0.3-0.1l-0.4-0.1H305l-0.3,0.4
		l-0.1,0.4l-0.5,0.2h-0.3h-0.3l0.4,0.2l0.5,0.2h0.5l0.5-0.2l0.2-0.3l0.4-0.1l0.3-0.2l0.2-0.4l0.1-0.2l0.2-0.2l0.3-0.1l0.3-0.1
		l0.2,0.1h0.3l0.5-0.2l0.2-0.3l0.1-0.4l0.2-0.2l0.3-0.1l0.4-0.2h0.2h0.4h0.2l0.2-0.1l0.3-0.2h0.3l0.3,0.2l0.2-0.2v-0.4l-0.1-0.4
		l-0.1-0.2l-0.1-0.2l-0.1-0.3l-0.1-0.2l-0.1-0.4l-0.3-0.5l-0.2-0.2v-0.4l0.1-0.5v-0.4l0.2-0.8v-0.4l-0.1-0.3l-0.1-0.5h0.5l0.4,0.2
		l0.3-0.1l0.4-0.1l0.1-0.2l0.3,0.1l0.2,0.1l0.2,0.1h0.3l0.4-0.1l0.3-0.2h0.3l0.3,0.2l0.4-0.1l0.4-0.1l0.3-0.1l0.2-0.3v-0.2l0.2-0.2
		l0.3-0.2l0.4-0.2l0.3-0.4l0.2-0.3l0.4-0.2l0.2-0.2l0.2-0.2v-0.4v-0.3v-0.3l0.1-0.3v-0.3l0.1-0.4l0.1-0.3v-0.5v-0.4l-0.1-0.3
		l-0.1-0.2L317.7,491.4z"/>
	<path id="path74" class="st1" d="M316.2,498.1l-0.2,0.5l0.1,0.4l0.4,0.5l0.3,0.2l0.2,0.4l0.1,0.2h0.2l0.3,0.1h0.4l0.3,0.3v0.2
		l0.2,0.2h0.3l0.2,0.1l0.1,0.3l0.2,0.2l0.2,0.2l0.4,0.2h0.5l0.3-0.1l0.3-0.2l0.3-0.2l0.3-0.2l0.3-0.2l0.4-0.1l0.4,0.1l0.3,0.2
		l0.3,0.1l0.2,0.1l0.3,0.2l0.4,0.1l0.5-0.1l0.4-0.2h0.5h0.5h0.5l0.3-0.2l0.3-0.1l0.2-0.1l0.6-0.2l0.1-0.2l0.2-0.3l0.2-0.2l-0.2-0.3
		l-0.3,0.2l-0.4,0.3l-0.2,0.2l-0.3,0.1l-0.1-0.3v-0.2l-0.3-0.1l-0.3,0.1l-0.1,0.2l-0.4,0.3l-0.3-0.2l-0.2-0.3l-0.2-0.2H325l-0.3,0.3
		l-0.2,0.2l-0.2-0.2l-0.3-0.4l-0.1-0.5l-0.4-0.3l-0.3,0.2l0.2,0.2l0.1,0.5l-0.3,0.1l-0.4-0.1l-0.3-0.3l-0.2-0.1l-0.2-0.2h-0.2
		l-0.3,0.4H321l-0.4-0.4l-0.2-0.1l-0.3,0.3l-0.2,0.1l-0.4-0.2l-0.3-0.2l-0.3,0.1l-0.2,0.2h-0.2h-0.4l-0.7-0.2l-0.3-0.2l-0.3-0.3
		l0.1-0.3l-0.1-0.5l-0.2-0.4L316.2,498.1z"/>
	<path id="path76" class="st1" d="M323.1,494.7l-0.1-0.3l-0.1-0.5l-0.1-0.5l0.2-0.5l0.2-0.3l0.3-0.3l0.2-0.3l0.2-0.3l0.3-0.2h0.2
		l0.4-0.2l0.2-0.4v1l-0.2,0.5l-0.1,0.3l0.3,0.2l0.2,0.2l0.2,0.2l0.3,0.1l0.4,0.2l0.3,0.2l0.5,0.3l0.4,0.2l0.2,0.4l-0.2,0.3l-0.5-0.1
		l-0.6-0.4l-0.3-0.3l-0.2-0.2l-0.3-0.1l-0.4-0.2l-0.2-0.2l-0.3-0.2l-0.4-0.2l-0.4,0.3l-0.1,0.3l0.1,0.4v0.2l-0.3,0.3L323.1,494.7z"
		/>
	<path id="path78" class="st1" d="M328.3,495.6l-0.3,0.4v0.4l0.2,0.3l0.4,0.3l0.4,0.1l0.4-0.5l0.1-0.5l-0.1-0.5l-0.3-0.2l-0.2-0.1
		L328.3,495.6z"/>
	<path id="path80" class="st1" d="M332.4,493.2h0.7l0.7,0.1l0.5,0.1l0.6-0.8l-1-0.3l-0.8,0.1l-0.6,0.5L332.4,493.2z"/>
	<path id="path82" class="st1" d="M331.5,492.9l0.2-0.5l0.2-0.4l0.2-0.5l-0.5-0.1l-0.1-0.5h-0.8l-0.1-0.6l-0.5-0.1l-0.5,0.1
		l-0.2,0.5l-0.5,0.2l-0.6-0.2l-0.2-0.5v-0.7l0.2-0.7l-0.3-0.2l-0.5,0.5l-0.2,0.8l0.2,0.9l0.5,0.7l0.7,0.2l0.6-0.2l0.5-0.1l0.1,0.5
		l0.2,0.7l0.4,0.2L331.5,492.9z"/>
	<path id="path84" class="st1" d="M300.2,507.1l0.2-0.4l0.1-0.5v-0.5h0.5l0.5,0.3l0.4,0.1l0.5,0.1l0.3-0.1l0.3-0.4l-0.5-0.2
		l-0.5-0.2l-0.3-0.2l-0.3-0.5l-0.2-0.4l-0.2-0.3l-0.6-0.1H300h-0.3l-0.4-0.2l-0.3-0.4l-0.1-0.3l-0.3-0.2h-0.3l-0.5-0.1l-0.3-0.3
		l-0.2-0.3l-0.1-0.2l-0.2-0.2h-0.3l-0.4-0.1l-0.1-0.5l-0.5,0.1l-0.1,0.5l0.3,0.4h0.2l0.3,0.2l0.1,0.4l0.5,0.2h0.3l0.2,0.2l0.3,0.5
		l0.4,0.3l0.3,0.2l0.2,0.1l0.2,0.5v0.4l0.2,0.3h0.4l0.2,0.5l0.1,0.4v0.4l-0.1,0.5L300.2,507.1z"/>
	<path id="path86" class="st1" d="M276.4,499.3l0.1,0.5l0.1,0.5l0.2,0.4l0.3,0.2l0.3,0.1l0.5,0.2l0.3,0.2l0.3-0.2l0.2-0.1l0.2,0.1
		l0.1,0.2l0.6-0.1l0.2-0.1h0.5l0.4-0.1l0.3-0.1l0.3-0.1l0.3-0.2l0.3-0.4h0.4h0.3v0.5l0.1,0.6l-0.2,0.4l0.1,0.5l0.5,0.2l0.3,0.1
		l0.2,0.2l0.3,0.2l-0.4,0.3l-0.6-0.2h-0.4l-0.4-0.2l-0.2-0.5l-0.1-0.4l-0.1-0.3l-0.4-0.1l-0.4,0.2l-0.5,0.1l-0.5-0.1l-0.4-0.1
		l-0.5-0.1l-0.5,0.1l-0.6,0.1l-0.5-0.1l-0.2-0.4l-0.4-0.2l-0.4-0.1l-0.3-0.3l-0.2-0.4l-0.1-0.3l-0.1-0.5l0.1-0.2L276.4,499.3z"/>
	<path id="path88" class="st1" d="M277.9,496.2l0.7-1.1l0.1-0.5l0.2-0.6v-0.4v-0.6l0.1-0.4l0.3-0.4l0.4-0.2l0.4,0.3l0.5,0.2l0.2,0.3
		l0.2,0.5l0.4,0.3l0.3,0.1l0.3,0.5l0.1,0.7l0.2,0.2l0.4,0.3l0.2,0.2l0.5,0.1h0.4l0.4-0.1l0.3,0.1l0.4,0.1l0.2,0.5l0.1,0.5l0.3,0.1
		l0.5-0.2l0.3-0.2l0.3-0.3l0.3-0.4l0.5-0.1l0.3-0.2V495l0.1-0.2h0.5l0.3,0.1l0.3-0.1l0.3-0.2l0.3-0.1l0.2-0.1l0.1,0.7l-0.1,0.4
		l0.5,0.2l0.5-0.2l0.3,0.1l0.3,0.5l0.2,0.6l-0.1,0.8l-0.1,0.5l-0.2,0.6l-0.1,0.4l0.3,0.3l-0.5,0.2l-0.3,0.1l-0.2,0.5l-0.1,0.4
		l-0.3,0.1l-0.2,0.2l0.2,0.2v0.3l-0.4,0.4L289,502l-0.1,0.5l0.5,0.1l0.4-0.3l0.4-0.5l0.2-0.3l0.5-0.4v-0.2l0.1,0.7l0.2,0.3l0.3-0.1
		l0.4-0.3l0.1-0.4l0.1-0.3l0.1-0.5l0.4-0.3l0.2-0.4v-0.4v-0.5l0.1-0.5V498l0.4-0.1l0.4-0.5l0.3-0.3l0.4-0.3l0.2,0.4l0.2,0.8
		l-0.1,0.5l-0.2,0.4l0.1,0.4l-0.2,0.2l-0.6,0.1l-0.1,0.5l0.4,0.2l0.5,0.2l0.4,0.1l0.2-0.6v-0.4l0.1-0.3v-0.4l0.1-0.4l0.1-0.4v-0.4
		l-0.2-0.4l-0.2-0.2l-0.3-0.4l-0.2-0.2l-0.2-0.2h-0.3l-0.2,0.4l-0.3,0.3l-0.2,0.3l-0.2,0.1l-0.2,0.4l-0.2-0.4l-0.1-0.4l0.1-0.4
		l-0.1-0.3l-0.2-0.3l-0.1-0.2l-0.2-0.2l-0.1-0.2l-0.4-0.3l-0.3-0.1l-0.3-0.2l-0.4-0.2v-0.5v-0.5l0.2-0.5l0.2-0.4l0.2-0.6l-0.5,0.4
		l-0.4,0.5l-0.2,0.2l-0.1,0.4l-0.2,0.3l-0.2,0.2h-0.2h-0.2l-0.4-0.1h-0.3l-0.5,0.1l-0.3,0.2l-0.1,0.2l-0.2,0.1l-0.1,0.2h-0.4
		l-0.4,0.1h-0.2h-0.3l-0.5-0.1h-0.7l-0.3-0.2l-0.2-0.2l-0.4-0.2l-0.3-0.1h-0.4l-0.2-0.2l-0.1-0.3l-0.1-0.3l0.1-0.3l0.1-0.3l-0.4-0.1
		l-0.4,0.1l-0.2-0.1h-0.2l-0.2-0.2l-0.1-0.3l-0.2-0.2l-0.1-0.2l-0.2-0.1l-0.2-0.5l-0.3,0.2l0.1-0.4l0.1-0.4l-0.5-0.2l-0.2,0.3
		l-0.1,0.4l-0.3,0.2l-0.4,0.1l-0.3,0.2l-0.3,0.4L278,492l-0.2,0.3l-0.1,0.5v0.3l-0.2,0.3v0.3h0.3h0.3l0.1,0.4v0.4l-0.2,0.4l-0.1,0.5
		l0.1,0.4L277.9,496.2z"/>
	<path id="path90" class="st1" d="M272,492.9l-0.3-0.2l-0.1-0.4l0.1-0.6l0.1-0.6v-0.5l-0.1-0.5l0.3-0.5l0.3-0.4l0.3-0.7v-0.3
		l0.1-0.3l-0.3-0.3l0.5-0.3l0.4-0.5l0.1-0.6v-0.8l0.1-0.5l-0.1-0.5l-0.3-0.3h-0.4l-0.2,0.1l-0.3,0.1l-0.1,0.4l0.2,0.4l-0.2,0.2
		l-0.1,0.4l-0.2,0.5l-0.2,0.1l-0.3,0.3l-0.1,0.3h0.3l-0.1,0.2l-0.2,0.3l-0.2,0.4l-0.2,0.5v0.5v0.5v0.4v0.5v0.6l-0.1,0.3v0.3l0.1,0.4
		l0.2,0.4l0.2,0.4l0.3,0.3l0.2,0.2L272,492.9z"/>
	<path id="path92" class="st1" d="M274.1,488.7l-0.3,0.1l-0.5,0.4l-0.2,0.5l-0.2,0.5v0.4l0.3,0.3l0.5,0.2h0.3l0.2-0.2l-0.3-0.5
		l-0.1-0.2l0.1-0.4l0.2-0.3l0.2-0.5L274.1,488.7z"/>
	<path id="path94" class="st1" d="M268.8,487.2l0.3,0.1l0.3,0.1h0.3l0.5-0.2l0.1-0.4l-0.2-0.5l-0.5,0.1l-0.4,0.2l-0.2,0.1
		L268.8,487.2z"/>
	<path id="path96" class="st1" d="M266.5,482l0.5-0.6l0.5-0.5l0.2-0.2h0.5l0.5,0.1h0.4l0.4-0.4l0.5-0.1l0.5-0.2l0.2-0.5l0.4-0.4
		l0.2-0.3l0.1-0.5l0.1-0.5l0.8-0.5l0.2-0.5l0.2-0.4l0.3-0.4l-0.1-0.4l0.1-0.5l-0.1-0.2l-0.4-0.2h-0.7h-0.3l-0.3-0.5l-0.1-0.4
		l0.2-0.3l0.2,0.1l-0.1,0.3l0.5,0.2l0.5,0.1l0.2,0.2l0.3,0.3l0.4,0.5v0.3l-0.1,0.4v0.5v0.2v0.4l0.2,0.4v0.3v0.3v0.4l-0.1,0.3
		l-0.2,0.2l0.1,0.3h0.5l0.3,0.1l0.1,0.3l0.1,0.3l0.2,0.2l0.2,0.2l0.2,0.2l0.1,0.2l0.2,0.2L275,481l-0.4-0.1l-0.3-0.1l-0.5-0.3
		l-0.2-0.2h-0.3l-0.2-0.2l-0.3-0.2l-0.3,0.4l-0.5,0.5l-0.3,0.1l-0.4,0.3l-0.2,0.3v0.2l0.4,0.5l-0.2,0.4l-0.3,0.3l-0.2,0.2l-0.1,0.2
		l-0.3,0.4l-0.1,0.2v0.4l-0.1,0.5l-0.2-0.3V484v-0.5v-0.4l0.2-0.2l0.1-0.3l0.1-0.5l-0.5,0.1l-0.4,0.1h-0.2l-0.2-0.2v-0.4l-0.3,0.1
		h-0.2l-0.3,0.1h-0.2l-0.2-0.2l-0.3,0.1l-0.4,0.3l-0.5,0.2L266.5,482z"/>
	<path id="path98" class="st1" d="M262.7,483.3l0.4-0.4l0.3-0.5l0.5-0.4l0.5-0.2l0.4-0.4l-0.4-0.4l-0.6,0.3l-0.2,0.3l-0.3,0.3
		l-0.5,0.4l-0.2,0.4l-0.2,0.4L262.7,483.3z"/>
	<path id="path100" class="st1" d="M259.7,479.3h0.5l0.1-0.5l-0.2-0.1l-0.2-0.5v-0.5v-0.4l-0.1-0.5l0.3-0.2l0.4-0.2l0.1-0.4l0.1-0.3
		l-0.1-0.4l-0.1-0.3l-0.2-0.4l0.3-0.4v-0.4l-0.1-0.3l-0.1-0.2l0.1-0.3l0.2-0.2l0.1-0.4l-0.2-0.4l-0.1-0.3h0.5l0.2-0.4l0.1-0.4
		l0.3-0.1h0.3l0.4,0.1l0.5,0.1l0.2-0.2l-0.2-0.3l-0.4-0.1l-0.3-0.2l-0.3-0.1h-0.4l-0.3,0.2l-0.2,0.4l-0.1,0.2l-0.3,0.3l-0.4,0.2
		l-0.3,0.1l-0.3,0.4l-0.1,0.5l0.1,0.4l0.3,0.4v0.3l-0.2,0.4l-0.3,0.4l-0.2,0.4v0.2l0.2,0.3l0.4,0.3l0.1,0.2l-0.2,0.2l-0.2,0.2
		l-0.2,0.4l0.2,0.3l0.2,0.3l-0.1,0.2l-0.1,0.2l-0.1,0.3v0.3l-0.1,0.2l-0.2,0.3l-0.1,0.4l0.1,0.2l0.2,0.2L259.7,479.3z"/>
	<path id="path102" class="st1" d="M258.7,475.4l-0.1,0.4l-0.1,0.2l-0.2,0.2l-0.3,0.4l-0.2,0.2l-0.2,0.1l-0.4,0.1l-0.3-0.1l-0.1-0.3
		l0.2-0.2l0.3-0.2l0.2-0.1l0.1-0.2l0.2-0.2l0.2-0.4L258.7,475.4z"/>
	<path id="path104" class="st1" d="M252.9,475l0.2,0.4l0.2,0.3v0.2l0.1,0.2l0.4-0.1l0.1-0.3l0.4,0.2l0.6,0.1h0.4l0.3-0.1l0.5,0.1
		h0.2h0.5l0.2-0.2l0.2-0.3l-0.3-0.2l-0.5,0.2h-0.4l-0.4-0.1h-0.3h-0.3l-0.2-0.1V475l0.4-0.3h0.2l0.2-0.4l-0.5,0.1l-0.3,0.3h-0.2
		h-0.4h-0.4h-0.4L252.9,475z"/>
	<path id="path106" class="st1" d="M267.1,470.1l0.4-0.1l0.4,0.2h0.4l0.5,0.1l0.5-0.2l0.3-0.1l0.3-0.4l0.2-0.2l0.8-0.4l0.4-0.5
		l0.4-0.5l0.5-0.2l0.7,0.2l0.5-0.1l1.2-0.2l0.2-0.2l0.5-0.2h0.4l0.5-0.1l0.5-0.2l0.7,0.1l0.5,0.1l-0.1,0.5l-0.2,0.3l-0.3,0.2
		l-0.4,0.4v0.2l-0.4,0.4v0.3l-0.2,0.3l0.1,0.5l-0.2,0.4l0.3,0.6l0.2,0.2l0.2,0.2l0.2,0.3l-0.1,0.5l-0.1,0.7l-0.1,0.3l0.2,0.4
		l0.1,0.5l0.1,0.4l0.3,0.4l0.3,0.1h0.5l0.6-0.1h0.5l0.1,0.2l0.2,0.2l0.1,0.2l0.4,0.2l0.4,0.2l0.4,0.1l0.6,0.1h0.7l0.6,0.1h0.4
		l0.2-0.2l-0.4-0.2l-0.8-0.1l-0.2-0.2l-0.2-0.3l-0.3-0.2h-0.3l-0.1-0.2l-0.1-0.3l-0.1-0.2l-0.5-0.2h-0.3l-0.6-0.1l-0.4-0.1l-0.3-0.1
		l-0.4-0.2h-0.4l-0.1-0.3l-0.1-0.4v-0.4l0.1-0.4l0.2-0.5l0.4-0.4l-0.5-0.1l-0.5-0.1l-0.2-0.3l-0.1-0.2l-0.1-0.5l0.1-0.3l0.1-0.5
		l0.1-0.3l0.3-0.5l0.2-0.2l0.4-0.2l0.3-0.2l0.3-0.2l0.3-0.3l0.3-0.4l0.3-0.3l0.3-0.3l0.3-0.2l0.3-0.4l0.1-0.3l-0.2-0.6v-0.4v-0.5
		l0.1-0.5l0.1-0.3l0.1-0.5l0.1-0.3l0.1-0.8V462v-0.3l0.2-0.4v-0.5l-0.5,0.1h-0.3l-0.1,0.3l-0.4,0.5l-0.2,0.1h-0.2l-0.3,0.1l-0.2,0.1
		l-0.5,0.2l-0.3,0.1l-0.3,0.1l-0.4-0.1h-0.2l-0.2-0.1l-0.3-0.1h-0.3l-0.1,0.4l-0.1,0.5v0.5l0.3,0.4l0.2,0.4l0.2,0.1l0.4-0.2l0.1-0.2
		l0.1-0.3l0.7-0.2l0.4-0.2l0.4-0.2l0.3-0.2h0.3l0.3-0.1l0.4-0.3l-0.2,0.6l-0.1,0.3v0.2l-0.2,0.3l0.1,0.5l0.1,0.2l-0.2,0.5l-0.1,0.2
		l-0.1,0.3l-0.1,0.3l-0.1,0.3l-0.2,0.4l-0.3,0.2l-0.3,0.2l-0.3,0.2H278l-0.3-0.1l-0.2-0.2l-0.2-0.2H277l-0.4-0.3h-0.5h-0.4l-0.5,0.2
		l-0.2,0.2l-0.4,0.2h-0.2l-0.5-0.1l-0.4-0.3l-0.1-0.2l-0.5-0.2h-0.4l-0.3,0.1l-0.2,0.1l-0.1,0.3l-0.2,0.2l-0.3-0.1l-0.4-0.2
		l-0.3-0.3l-0.2-0.2l-0.3-0.1l-0.2,0.2l-0.2-0.2l0.2-0.2h0.3l0.4-0.1h0.3l0.2-0.4l-0.5-0.1l-0.4,0.1l-0.5,0.1l-0.5,0.3l-0.2,0.3
		l0.1,0.2l0.3,0.5l0.5,0.1l0.5,0.3v0.4l-0.2,0.3l-0.1,0.3l-0.2,0.3l-0.4,0.2l-0.5,0.3l0.1,0.3l-0.2,0.1l-0.2,0.3l-0.5,0.1l-0.4-0.1
		l-0.4,0.2L267.1,470.1z"/>
	<path id="path108" class="st1" d="M281.4,470.8h0.2l0.3-0.1l0.1-0.2l0.3-0.3l0.2-0.3l0.3-0.3l0.9-0.2h0.5l0.4-0.2l0.1-0.4l-0.2-0.2
		l-0.5,0.2l-0.4,0.1h-0.3h-0.5l-0.4,0.1l-0.5,0.4l-0.1,0.4l-0.1,0.4L281.4,470.8z"/>
	<path id="path110" class="st1" d="M284.4,470.2l-0.3,0.1h-0.3h-0.2l-0.2,0.2l-0.2,0.5l-0.2,0.4v0.2h0.2h0.4l0.2-0.1l0.2-0.2
		l0.2-0.2l0.1-0.5L284.4,470.2z"/>
	<path id="path112" class="st1" d="M285,468.3l0.3,0.2l0.4-0.1v-0.3l-0.4-0.2l-0.2,0.1L285,468.3z"/>
	<path id="path114" class="st1" d="M277.7,477l0.8,0.2l0.9-0.1l0.4,0.2l0.2,0.1l0.5-0.1l0.6-0.2l0.6,0.2l0.8,0.1l0.5-0.1l0.5-0.1
		l0.4-0.1l0.2-0.4l0.2-0.4l0.2-0.4l0.1-0.8l-0.1-0.5l-0.1-0.3l-0.1-0.3l0.3-0.2l0.3,0.4l0.1,0.5l0.1,0.2h0.4v0.5l-0.2,0.2l-0.2,0.4
		l-0.1,0.3v0.3l-0.3,0.6l-0.4,0.2l-0.2,0.1l-0.2,0.2l-0.3,0.1h-0.4l-0.2-0.2l-0.2,0.1l-0.2,0.2l-0.4,0.1l-0.3,0.1l-0.2-0.2l-0.2-0.2
		l-0.1,0.3v0.5v0.4l0.2,0.2l0.3,0.1l0.2,0.1l0.2,0.5l0.1,0.4l0.2,0.4l0.3,0.3l0.3,0.4l0.3,0.1l0.2,0.4l-0.1,0.9l-0.1,0.3v0.3
		l0.1,0.4l0.1,0.4l0.1,0.3l-0.1,0.2l-0.1,0.7l-0.3,0.1l-0.4,0.2l-0.1,0.3l-0.1,0.4v0.4l-0.2,0.5h-0.3h-0.3l0.2,0.5h0.2l0.2,0.3
		l-0.2,0.3l-0.3,0.5h-0.4l-0.4,0.2l-0.4-0.1l-0.3-0.3l-0.2-0.5l0.1-0.5l0.2-0.7l0.1-0.5l0.5-0.5l0.5-0.4l0.2-0.6l0.2-0.5l-0.1-0.7
		v-0.4l-0.1-0.5l-0.2-0.5l-0.1-0.4v-0.4l-0.1-0.2l-0.2-0.4l-0.4-0.4l-0.1-0.5l-0.1-0.4l-0.1-0.2l-0.1-0.2l-0.2-0.1l-0.2-0.3v-0.4
		l-0.2-0.4l-0.2-0.2l-0.4-0.2h-0.5l-0.2,0.1l-0.3-0.1h-0.4l-0.6-0.2l-0.1-0.3L277.7,477z"/>
	<path id="path116" class="st1" d="M279.8,487.5l0.1,0.5v0.4l-0.1,0.4l-0.1,0.2l-0.2,0.2l-0.3,0.1l-0.2,0.1l-0.3,0.1l-0.2-0.2
		l0.2-0.2l0.3-0.1l0.3-0.3l0.1-0.3v-0.3l-0.1-0.2v-0.3v-0.2l0.2-0.1L279.8,487.5z"/>
	<path id="path118" class="st1" d="M287.2,478.5l0.5,0.1c0,0,0.5-0.1,0.5,0.1c0,0.2,0.1,0.4,0.1,0.4l0.6,0.3l0.4,0.1l0.2,0.2
		l0.2,0.2v0.4l-0.1,0.3l0.2,0.2l0.4,0.2l0.1,0.6l0.2,0.5l0.1,0.4l-0.1,0.5v0.3v0.3v0.5v0.4v0.4l-0.1,0.8l-0.2,0.5l0.2,0.5l0.1,0.3
		l0.1,0.3l0.3,0.4l0.2,0.2l0.2,0.2l0.2,0.2l0.3,0.2l0.2,0.3l0.2,0.1l0.3,0.1l0.5-0.1l0.4-0.3l0.2-0.3l0.5-0.2l0.3-0.2l0.3-0.1
		l0.5-0.2l0.2-0.1l0.4-0.1l0.5-0.2l0.5-0.1l0.4-0.1l0.1,0.3l-0.2,0.3l-0.1,0.6l0.2,0.4l0.1,0.4l-0.1,0.3v0.2l0.1,0.2l0.2,0.3
		l0.2,0.5l0.2,0.3l0.2,0.2l0.7,0.1l0.4,0.1l0.6-0.1h0.3l0.4-0.1l0.5-0.1l0.4-0.2l0.3-0.2l0.5-0.5l0.3-0.2l0.5-0.1l0.3-0.2l0.4,0.2
		l0.4-0.1l0.2-0.1l0.2-0.5l-0.1-0.4l-0.1-0.4v-0.4l-0.2-0.1l-0.2-0.3l-0.1-0.5l-0.1-0.2l-0.2-0.5l-0.1-0.8l-0.3-0.1l-0.3-0.4
		l-0.1-0.5l-0.2-0.7l0.2-0.5l-0.2-0.4l0.1-0.7l-0.2-0.4l0.2-0.4l-0.2-0.3l-0.2-0.3l-0.4,0.1l-0.5-0.1l-0.1-0.2l-0.3-0.1l-0.2-0.3
		v-0.5l-0.1-0.3l0.1-0.2l0.2-0.3h0.3l0.2,0.6l-0.1,0.2l0.4,0.4l0.2-0.1l0.5-0.2l0.3,0.1l0.3-0.1l0.3,0.2l0.2,0.1l0.2,0.3l0.1,0.3
		l0.2,0.2l0.2-0.1l0.2-0.3v-0.2l0.3-0.1l0.2,0.1l0.2,0.4l-0.1,0.4l0.2,0.4l0.4,0.1l0.1-0.2l0.2-0.4l0.2-0.2l0.2-0.1l0.5,0.1l0.2-0.1
		l0.2-0.3l0.1-0.3l0.1-0.3l0.3-0.1h0.5h0.3l0.2-0.2l0.3-0.1l0.2-0.3l0.2-0.4l0.1-0.7l0.4-0.2h0.5h0.4l0.2,0.2l-0.1,0.5l-0.4,0.2
		l-0.2,0.5l-0.1,0.3l-0.2,0.1l-0.5,0.3l-0.5,0.2l0.1,0.4l-0.4,0.4l-0.5,0.1H308h-0.3l-0.2,0.5l0.1,0.2l-0.2,0.4L307,482l-0.4,0.1
		l-0.3-0.1l-0.3,0.1l-0.4-0.1l-0.1,0.2l-0.2,0.3h-0.2h-0.4l-0.3-0.2l-0.2-0.3l-0.1-0.4l-0.5,0.1l-0.1,0.4v0.7l-0.1,0.4v0.5l0.1,0.2
		v0.2l0.2,0.4l0.3,0.2l0.2,0.3l0.2,0.4l0.3,0.4l0.1,0.2v0.3l0.2,0.3l-0.1,0.5l0.4,0.1l0.2-0.1l0.2,0.2l0.1,0.2v0.4l0.1,0.3v0.3
		l-0.1,0.8l-0.4,0.2l-0.3,0.1h-0.2l-0.2,0.2l-0.2,0.3l-0.1,0.3l-0.2,0.2h-0.3l-0.4-0.1l-0.4-0.1h-0.2l-0.2-0.1l-0.1,0.4v0.2v0.2
		l-0.5,0.2l-0.2,0.1l-0.2,0.5h-0.5h-0.3l-0.3,0.1l-0.4,0.1H300h-0.8l-0.6,0.1l-0.3-0.1l-0.3-0.2l-0.9-0.3l-0.2-0.3l-0.2-0.5
		l-0.1-0.3l0.2-0.2l-0.1-0.3v-0.4l0.1-0.5l-0.2-0.3l-0.4,0.1l-0.3,0.2l-0.4,0.1l-0.2,0.2l-0.2,0.1l-0.6,0.3v-0.3h-0.6l-0.7,0.1h-0.2
		l-0.2,0.2h-0.2l-0.2,0.2l-0.1,0.3l-0.1,0.2l-0.3-0.1l-0.2-0.3l-0.1-0.3l-0.2-0.3l-0.1-0.2l-0.2-0.2l-0.2-0.2l-0.1-0.2l-0.2-0.3
		l-0.2-0.2l-0.2-0.2l-0.1-0.2l-0.2-0.1l-0.4-0.2l-0.2-0.4L289,486l0.1-0.4v-0.3l0.2-0.5l0.2-0.4l0.1-0.4l0.1-0.4l0.1-0.5v-0.5v-0.4
		l-0.1-0.6v-0.4l-0.1-0.4l-0.2-0.3l-0.2-0.2l-0.2-0.2l-0.5-0.2l-0.4-0.1l-0.4-0.1l-0.3-0.1v-0.6v-0.5L287.2,478.5z"/>
	<path id="path120" class="st1" d="M299.3,480.1l-0.1,0.3v0.4v0.4h-0.4l-0.2-0.2v-0.5l0.2-0.2l0.2-0.2H299.3z"/>
	<path id="path122" class="st1" d="M307.5,491.3l0.1,0.2l0.2,0.2l0.2,0.4l0.3,0.4l0.3,0.5l-0.3,0.2l-0.2,0.1l-0.2-0.1l-0.2-0.2
		l-0.1-0.3l-0.1-0.2l-0.1-0.3l-0.1-0.2l-0.1-0.5L307.5,491.3z"/>
	<path id="path124" class="st1" d="M254.2,440.5l0.2-0.3l0.3-0.2h0.3l0.3-0.2l0.1-0.3l0.1-0.3l0.7-0.2l0.9,0.2l0.1,0.5v0.5l-0.1,0.3
		l-0.2,0.2l0.4,0.2v0.5l-0.7-0.1l-0.3-0.2l-0.3-0.2l-0.3,0.1l-0.3,0.1l-0.1,0.3l-0.1,0.2l-0.2,0.1l-0.3-0.1l-0.2-0.2l-0.3-0.2
		l-0.2-0.4L254.2,440.5z"/>
	<path id="path126" class="st1" d="M251.4,445.5l-0.1,0.2v0.5l0.2,0.3l0.1,0.3l0.2,0.2l0.2,0.2l0.5,0.4l0.2,0.1h0.2l0.3,0.1h0.5h0.2
		l0.3,0.1l0.4,0.2v-0.4l-0.2-0.2l-0.5-0.2l-0.3-0.2l-0.2-0.1l-0.2-0.2l-0.1-0.2l-0.1-0.2l0.3-0.1l0.4-0.2l0.2-0.2l0.1-0.2l-0.2-0.2
		l-0.2,0.1h-0.6l-0.4-0.1h-0.2l-0.3-0.2l-0.2-0.1h-0.2L251.4,445.5z"/>
	<path id="path128" class="st1" d="M253,448.9l0.4-0.1l0.4,0.1l0.3,0.2l0.2,0.1l0.2,0.2l-0.1,0.2l-0.2,0.1l-0.4,0.2h-0.3l-0.2-0.1
		l-0.4-0.2l-0.1-0.5L253,448.9z"/>
	<path id="path130" class="st1" d="M254.3,450.4l0.2,0.3l0.3,0.3l0.4,0.1h0.2l0.3-0.2l0.4-0.3l0.1-0.3l-0.4-0.2l-0.2-0.1l-0.4-0.1
		h-0.3l-0.2,0.1l-0.2,0.1V450.4z"/>
	<path id="path132" class="st1" d="M256.9,443.9l-0.3,0.2l-0.1,0.3l-0.2,0.3l0.2,0.5l0.3,0.3h0.4l0.1,0.3L257,446l-0.2,0.5l-0.1,0.2
		l0.1,0.2v0.3l0.3,0.3l0.2,0.1l0.5,0.1h0.5h0.3h0.4l0.3,0.1h0.6l0.4,0.2l0.4,0.1l0.3,0.1l0.3-0.1l0.3-0.2l0.3-0.1l0.4-0.1h0.8h0.4
		l0.3-0.1h0.2l0.8,0.1h0.3h0.4l0.4,0.1l0.7-0.1l0.3,0.3l0.2,0.1l0.5,0.2l0.3-0.1l0.4-0.2v-0.3l-0.1-0.2l-0.3,0.1h-0.2l-0.4-0.1
		l-0.2-0.3l-0.2-0.2l-0.5-0.2h-0.5l-0.4,0.1h-0.4l-0.4-0.1l-0.5-0.5l-0.2-0.2l-0.2-0.1h-0.5h-0.3l-0.4,0.1l-0.3,0.1l-0.3,0.1
		l-0.4,0.2l-0.3,0.2h-0.4h-0.5l-0.5-0.2l-0.5-0.1l-0.2-0.3l-0.3-0.2l-0.4-0.1l-0.2-0.2l-0.3-0.2l-0.3-0.1l0.2-0.5l0.1-0.2l-0.1-0.3
		l-0.5-0.1l-0.3-0.1v-0.4l0.2-0.3l-0.2-0.4L256.9,443.9z"/>
	<path id="path134" class="st1" d="M264.9,449.2l0.4,0.1l0.5,0.1l0.8,0.1l0.5-0.1l0.5-0.2l0.6,0.1l0.4,0.1l0.7,0.3l0.4,0.2l0.5,0.1
		l0.5,0.1l0.4,0.1l0.5,0.1h0.5h0.7h0.4l0.4-0.1l0.1-0.2l0.2-0.4l0.4-0.3l0.1-0.3l0.4-0.2l0.2-0.1l0.1-0.2v-0.5v-0.4L275,447
		l-0.7-0.1l-0.3,0.1l-0.1,0.3l0.1,0.5l-0.5,0.2l-0.3-0.1l-0.3-0.1l-0.2,0.3l-0.3,0.4l-0.5,0.1l-0.4-0.4l-0.4-0.4H271l-0.4-0.1
		l-0.2-0.2l-0.3-0.4l-0.3-0.3l-0.4-0.3l-0.1-0.3l-0.2-0.5l-0.1-0.4l-0.5-0.4l-0.4-0.3l-0.2-0.4l-0.1-0.5l-0.4-0.5l-0.4,0.2v0.5
		l0.3,0.5v0.3l0.1,0.3l0.2,0.2l0.2,0.5l0.5,0.5l0.4,0.5l0.4,0.5l0.3,0.3l0.2,0.3l0.3,0.2l0.4,0.5l0.5,0.4l0.1,0.3l-0.2,0.2h-0.3
		h-0.3l-0.5-0.2l-0.3-0.1l-0.5-0.1l-0.2,0.1l-0.3-0.2l-0.5-0.1l-0.4,0.1l-0.4,0.2l-0.2,0.1l-0.2,0.1l-0.4,0.1H266l-0.4-0.1l-0.5-0.1
		H265h-0.3v0.2L264.9,449.2z"/>
	<path id="path136" class="st1" d="M274.7,446.2h0.3h0.3l0.4-0.4v-0.3l-0.2-0.2l-0.3-0.3v-0.2l0.1-0.2l0.3-0.1l0.2-0.3l-0.1-0.4
		h-0.3l-0.1-0.4l0.3-0.2l0.2-0.1l0.1-0.3v-0.2l0.3-0.1h0.2l0.3-0.3l-0.1-0.2l-0.2-0.8l0.2-1.3l0.1-0.2l0.1-0.2h0.5l0.1-0.3l-0.1-0.4
		v-0.4V438l0.2-0.1l0.3-0.1h0.5l0.3,0.1h0.4l0.3,0.1l0.3,0.1l0.2-0.2l-0.1-0.5l-0.2-0.2l-0.2-0.1l-0.4-0.1h-0.2h-0.2H278h-0.5
		l-0.4,0.1l-0.5,0.2l-0.2,0.4l-0.2,0.3v0.4v0.2l0.2,0.2l-0.3,0.2l-0.3,0.2l-0.1,0.5l-0.2,0.3v0.2l-0.1,0.2l-0.1,0.5l0.2,0.4l0.1,0.3
		l-0.1,0.2l-0.3,0.2l-0.2,0.2l-0.6,0.2h-0.3H274h-0.3h-0.3l-0.4-0.1l-0.3-0.2l-0.2-0.3l-0.1-0.2l-0.2-0.3L272,441l-0.4-0.2l-0.4-0.1
		l-0.2,0.2l0.2,0.6l0.4,0.4l0.2,0.2l0.2,0.3l0.3,0.1l0.2,0.2l0.2,0.1l0.4,0.2l0.4,0.2h0.7l0.5-0.1l-0.1,0.4l-0.4,0.6l-0.1,0.5
		l0.2,0.2l0.2,0.2l-0.1,0.3v0.2l-0.1,0.2l-0.2,0.2v0.2l0.3,0.2L274.7,446.2z"/>
	<path id="path138" class="st1" d="M275.2,449.3l0.2,0.2l0.1,0.3l0.3,0.4l0.1,0.2l-0.1,0.3l-0.1,0.2h-0.3l-0.4-0.2l-0.2-0.2v-0.4
		l-0.1-0.3l-0.1-0.2L275.2,449.3z"/>
	<path id="path140" class="st1" d="M278.9,445.3V445l0.4-0.2l0.2,0.1l0.4,0.2l0.3,0.4l0.3,0.4l0.2,0.2l0.1,0.5l0.1,0.5l-0.6-0.1
		l-0.2-0.3l-0.3-0.2l-0.2-0.1l-0.4-0.2l-0.2-0.2L278.9,445.3z"/>
	<path id="path142" class="st1" d="M281.6,443l-0.2,0.3l-0.2,0.3l-0.1,0.3l-0.1,0.4l0.1,0.5l0.2,0.4l0.1,0.2l0.3,0.2l0.3,0.1
		l0.2-0.2L282,445l-0.1-0.2l-0.1-0.2l-0.1-0.2l0.1-0.2l0.1-0.2l0.2-0.2v-0.2l0.2-0.2L281.6,443z"/>
	<path id="path144" class="st1" d="M273.5,456.8l0.3,0.1l0.6-0.2l0.5-0.2l0.4-0.2l0.3-0.2l0.2-0.2l0.4-0.2l1.1-0.2h0.7l0.5,0.1
		l0.3-0.1h0.5l0.3-0.1l0.2-0.1l0.2-0.4l-0.6-0.1h-0.4h-0.5l-0.4,0.1h-0.2l-0.5-0.1h-0.3h-0.2l-0.2-0.1l-0.5-0.2l-0.4-0.2h-0.5
		l-0.2,0.4l-0.1,0.2l0.2,0.2l-0.2,0.4h-0.2l-0.3,0.1l-0.2,0.1l-0.4,0.2l-0.3,0.2l-0.4,0.3l-0.2,0.2l0.2,0.2L273.5,456.8z"/>
	<path id="path146" class="st1" d="M248.6,457.8l0.5-0.3l0.3-0.2l0.3-0.2l0.4-0.2l0.3-0.2l0.4-0.3l0.3-0.1h0.3l0.4-0.1l-0.3-0.4
		l-0.4-0.4l-0.2-0.2l-0.4,0.2l-0.5,0.5l-0.2,0.1l-0.2,0.2l-0.3,0.1l-0.1,0.2l-0.2,0.2l-0.1,0.2l-0.1,0.2l-0.1,0.3L248.6,457.8z"/>
	<path id="path148" class="st1" d="M248.7,455.5l0.4-0.4l0.2-0.2l0.2-0.1l0.6-0.2h0.3l0.3-0.2l0.2-0.2l-0.2-0.4h-0.7l-0.3,0.1
		l-0.2,0.1l-0.4,0.2l-0.2,0.1l-0.1,0.2l-0.3,0.3l-0.1,0.3v0.2L248.7,455.5z"/>
	<path id="path150" class="st1" d="M254.1,453.2l-0.4,0.1l-0.3,0.1l-0.2,0.3l-0.2,0.4v0.2v0.3l0.1,0.2v0.2v0.3l-0.1,0.2v0.2v0.3
		l0.1,0.5l0.1,0.4l0.1,0.3v0.3l-0.2,0.2l-0.2,0.3l-0.3,0.1l-0.2,0.2l0.5,0.1h0.2l0.5,0.1l0.4,0.1v0.4v0.2v0.2l0.1,0.3l0.4,0.3
		l0.3,0.2l0.4,0.1v0.3v0.3l0.1,0.2l0.2,0.2l0.2,0.1l0.2,0.2l0.3,0.1l0.4,0.4l0.4,0.4l0.3,0.3l0.2,0.1l0.2,0.2h0.2l0.3,0.2l0.2,0.1
		l0.2-0.2l-0.2-0.2l-0.2-0.1l-0.2-0.2l-0.2-0.2l-0.4-0.3L257,462l-0.4-0.2l-0.2-0.2l-0.4-0.2l-0.2-0.2l-0.2-0.2v-0.2l-0.1-0.3
		l-0.2-0.3l-0.4-0.3l-0.3-0.2l-0.1-0.4v-0.4l0.3-0.3l0.3-0.1l0.3-0.2l-0.5-0.1l-0.5-0.2h-0.2l-0.3-0.2l-0.1-0.2v-0.5v-0.5l-0.1-0.3
		l-0.1-0.5v-0.2l0.1-0.3l0.1-0.2v-0.3l-0.1-0.3v-0.3l0.1-0.2l0.2-0.1l0.2-0.1l0.2-0.1l0.2-0.1l-0.3-0.2L254.1,453.2z"/>
	<path id="path152" class="st1" d="M250.8,460.1l-0.1,0.5l-0.1,0.3l0.1,0.3l0.2,0.2l0.3,0.3l0.1,0.5h-0.3l-0.3,0.1h-0.2v0.4
		l-0.2,0.2l-0.4,0.4l-0.1,0.8l0.1,0.2l0.5,0.5l0.1,0.4l0.2,0.3l0.3,0.5l0.1,0.3l0.1,0.2l0.1,0.2v0.4v0.5v0.3v0.2v0.5l0.4,0.2
		l0.3,0.1l0.2,0.3l0.2,0.3h0.5h0.3l0.4,0.1l0.2-0.1l-0.1,0.4l-0.2,0.3l0.1,0.3l-0.4,0.1l-0.3-0.1l-0.2-0.2l-0.3-0.2l-0.4,0.1
		l-0.2-0.1l-0.3-0.1l-0.2-0.4l-0.2-0.2l-0.3-0.3l-0.2-0.3l0.1-0.4l0.1-0.2l0.2-0.2v-0.3l-0.2-0.2l-0.1-0.3l-0.1-0.2l-0.1-0.5
		l-0.1-0.2l-0.1-0.4l-0.2-0.2l-0.5-0.3l-0.2-0.2l0.2-0.5v-0.2l-0.2-0.2l-0.2-0.4l-0.1-0.2l0.1-0.3l0.3-0.3l0.4-0.2l0.2-0.3l0.2-0.1
		l0.2-0.2l-0.2-0.2l-0.1-0.2l-0.1-0.4v-0.4l0.2-0.2v-0.2l0.4-0.5L250.8,460.1z"/>
	<path id="path154" class="st1" d="M262,467.1l0.1,0.4l0.2,0.1l0.7,0.1l0.3-0.5V467v-0.4l-0.3-0.2l-0.5-0.2l-0.1-0.3l0.1-0.4
		l0.2-0.2l0.3,0.1l0.2-0.4v-0.5v-0.2l0.1-0.4l0.5-0.1h0.2h0.2l0.5-0.2l0.2-0.5v-0.2l0.2-0.4h0.4l0.1-0.3l0.1-0.3l-0.1-0.2l0.1-0.2
		l0.2-0.1l0.2-0.1l0.2-0.2l-0.1-0.2l0.2-0.4l0.3-0.2l0.3-0.2l-0.1-0.3l0.4-0.3l0.2-0.1l0.3-0.3v-0.2l-0.1-0.2v-0.2l0.3-0.2l0.6-0.1
		l0.2-0.2l0.4,0.1l0.5,0.1l0.5,0.1l0.5-0.1l0.7,0.2l0.3,0.1h0.3l0.5,0.3l0.2,0.2l0.2,0.2h0.2l0.2-0.1l0.5,0.1h0.4l0.3,0.2l0.5,0.3
		l0.2,0.2l0.4,0.2l0.6,0.2l0.2,0.2l0.5,0.1l0.4-0.2l0.3-0.2l0.3,0.1l0.5-0.1h0.4l0.5,0.2l0.3,0.1h0.2h0.3h0.2l-0.3-0.3h-0.7
		l-0.2-0.1l-0.2-0.2l-0.5-0.1h-0.3l-0.5-0.1l-0.4-0.1l-0.3-0.1l0.1-0.3l-0.4-0.2l-0.2,0.1l-0.3-0.1l-0.2,0.1l-0.2-0.1l-0.2-0.2
		l-0.5-0.3l-0.2-0.4l-0.3-0.1h-0.4h-0.4l-0.4-0.2l-0.2-0.3H273l-0.3-0.1l-0.4,0.1l-0.2,0.1h-0.2l-0.3-0.1h-0.2h-0.2l-0.5-0.1
		l-0.5-0.3l-0.1-0.2l-0.2-0.2l-0.2,0.1l-0.3,0.1h-0.2l-0.4-0.1l-0.2-0.1l-0.3,0.1l-0.3,0.3l-0.4,0.2l-0.1,0.3l-0.3,0.5l-0.2,0.2
		h-0.2h-0.2v0.3v0.2l-0.2,0.2l-0.2,0.4l-0.2,0.2l0.1,0.2l0.1,0.5l-0.2,0.2l-0.2,0.2l-0.2,0.1l-0.2,0.1l-0.2,0.3l-0.1,0.3l0.1,0.3
		l-0.1,0.2l-0.3,0.3l-0.4,0.2l-0.1,0.2l-0.4,0.2h-0.2h-0.2h-0.2l-0.2,0.1l-0.1,0.2l-0.1,0.2l0.1,0.4l-0.1,0.4l-0.4,0.2l-0.4,0.3
		l-0.1,0.2l0.1,0.2l0.1,0.3l0.4,0.2l-0.1,0.2l-0.2,0.3L262,467.1z"/>
	<path id="path156" class="st1" d="M261.7,454.6h0.3l0.3-0.2l0.4-0.1l0.2,0.1l0.3,0.1l0.2,0.2l0.4,0.4v0.4l-0.6,0.1l-0.3-0.4
		l-0.4-0.1H262h-0.3l-0.2-0.1v-0.2L261.7,454.6z"/>
	<path id="path158" class="st1" d="M332.3,451.6l0.4,0.1l0.3,0.1l0.3,0.1l0.5,0.2l0.4-0.1l0.4,0.1l0.3,0.1l0.2,0.2l0.1,0.3v0.4
		l-0.1,0.2v0.2l-0.1,0.2l-0.4-0.1l-0.2-0.1l-0.9-0.3l-0.2-0.2l-0.5-0.4l-0.3-0.3l-0.3-0.4L332.3,451.6z"/>
	<path id="path160" class="st1" d="M328.6,453.6l0.1-0.3l0.1-0.3l0.2-0.2l0.2-0.2l0.2-0.2l0.2-0.1l0.2-0.1l0.5,0.1l0.4,0.2l0.3,0.2
		l0.2,0.2l0.2,0.3l0.5,0.2l0.3,0.2l0.3,0.3l0.4,0.1l0.3,0.1l0.2-0.1h0.2l0.2,0.2v0.4l-0.1,0.2l-0.2,0.3l-0.3,0.4H333l-0.6-0.1
		l-0.2-0.3l-0.2-0.4l-0.1-0.3l-0.3-0.2l-0.2,0.1l-0.2,0.3l-0.2,0.2l-0.2-0.2l-0.3-0.1l-0.2-0.8v-0.3l-0.3-0.1l-0.3,0.1l-0.3,0.1
		l-0.3,0.2L328.6,453.6z"/>
	<path id="path162" class="st1" d="M288.8,420.8l-0.4-0.2l-0.4-0.4l-0.1-0.2l-0.2-0.2l-0.1-0.4l-0.2-0.4l-0.1-0.4l-0.1-0.4l-0.2-0.5
		l-0.1-0.3l-0.2-0.9v-0.3l-0.1-0.4v-0.5l0.3-0.3l0.3-0.1l0.1-0.2l-0.1-0.2l-0.1-0.5l-0.3-0.3v-0.4l0.2-0.6l0.4-0.1h0.4l0.2-0.3v-0.3
		l0.1-0.4l0.1-0.8l0.2-0.2l0.2-0.2l0.2-0.1l0.5,0.2l0.1-0.3V410l0.3-0.4l0.2-0.1h0.5h0.2h0.2h0.4h0.4l0.2-0.3l0.1-0.2l0.1-0.3
		l0.1-0.2l0.3-0.7l0.2-0.2l0.1-0.3l0.2-0.3l0.2-0.4l0.1-0.2l0.2-0.3l0.4-0.4l0.2-0.3l0.1-0.2l0.3-0.2l0.3-0.2l0.3,0.1v0.6l-0.1,0.2
		l-0.5,0.2l-0.4,0.2l-0.1,0.2l-0.2,0.2l-0.3,0.5l-0.2,0.3l-0.1,0.5l-0.1,0.2l-0.2,0.4l-0.2,0.2l-0.1,0.3l-0.1,0.2v0.4v0.5l0.1,0.6
		v0.2v0.2l0.1,0.3l0.1,0.2l0.1,0.5l0.1,0.2l0.1,0.4v0.3l-0.2-0.3l-0.2-0.2l-0.1-0.3l-0.1-0.3l-0.1-0.2l-0.2-0.4l-0.1-0.2l-0.1-0.2
		l-0.2-0.3l-0.4-0.2l-0.2-0.1l-0.2-0.1H291l-0.3,0.1l-0.2,0.1l-0.2,0.1l-0.1,0.5l0.1,0.4l-0.1,0.4l-0.3-0.2l-0.4-0.1h-0.2l-0.1,0.3
		l-0.1,0.3l-0.1,0.3v0.3l0.1,0.2v0.2l-0.2,0.3l-0.3,0.1h-0.2l-0.3,0.2l0.1,0.3l0.1,0.2v0.2l0.1,0.2l0.1,0.2l0.2,0.2l-0.2,0.3
		l-0.2,0.2l-0.2,0.1v0.5l0.1,0.5v0.3v0.4v0.2v0.6l0.1,0.3l0.1,0.5l0.1,0.5l0.1,0.3l0.2,0.2l0.2,0.3l0.2,0.2l0.2,0.3l-0.1,0.2
		L288.8,420.8z"/>
	<path id="path164" class="st1" d="M295.9,414.2l0.2-0.2l0.2-0.1l0.2-0.2l0.3,0.3l0.1,0.2l0.1,0.2l0.2,0.2l0.1,0.3l0.1,0.2l0.2,0.4
		l0.1,0.3l0.1,0.3l0.1,0.3l0.2-0.5l0.1-0.8v-0.4v-0.3l0.1-0.5v-0.2l0.1-0.3l0.1-0.3l0.1-0.4l0.2-0.3l0.2-0.2l0.2-0.1l0.3-0.1
		l0.2-0.1l0.5-0.3l0.1-0.2l0.2-0.2l-0.2,0.2l-0.3-0.1l-0.2,0.1l-0.2,0.1l-0.5-0.3l-0.4,0.2l-0.2,0.5l-0.1,0.2l-0.3,0.2l-0.2,0.2
		l-0.2,0.2l-0.1,0.4l-0.3-0.1l-0.2-0.3l-0.4-0.1l-0.3,0.2l-0.1,0.2l-0.2,0.2l-0.1,0.2L295.9,414.2z"/>
	<path id="path166" class="st1" d="M295.5,409.6h0.3h0.4l0.4-0.3l0.1-0.2l0.2-0.2h0.2l0.4-0.1l0.2-0.3l0.2-0.1l0.3,0.1l0.2,0.2
		l0.1,0.3l0.4,0.2l0.2,0.3v0.5v0.3l0.2,0.4l0.2,0.2l0.2-0.1l0.3-0.2v-0.5v-0.5l-0.1-0.4l-0.1-0.2l-0.1-0.3l-0.1-0.4l-0.1-0.2v-0.2
		l-0.2-0.3l-0.4-0.2h-0.6l-0.2,0.2l-0.3-0.1l-0.1-0.2l-0.4-0.3l-0.3,0.2l-0.2,0.3l-0.2,0.3l-0.3,0.2l-0.3,0.2l-0.3,0.2l-0.3,0.2
		l-0.1,0.2v0.2v0.3l-0.2,0.2L295.5,409.6z"/>
	<path id="path168" class="st1" d="M301.6,419.2l0.1-0.4l0.1-0.5V418l0.1-0.3v-0.8l0.1-0.5V416l0.1-0.3v-0.5v-0.3v-0.5v-0.4v-0.5
		l0.1-0.2l0.1-0.5l0.1-0.3l0.3-0.4l0.2-0.7v-0.3l0.1-0.3l0.3-0.4l0.2-0.2l0.4-0.2l0.4-0.2l0.2,0.1l0.3,0.3l0.1,0.4l0.3,0.1l0.2-0.2
		l0.1-0.4l0.2-0.3v-0.2l-0.2-0.4l-0.1-0.3l-0.2-0.2l-0.4,0.3h-0.3l-0.5-0.1h-0.4l-0.3,0.2l-0.3,0.3l-0.1,0.2l-0.1,0.3l-0.2,0.2
		l-0.1,0.4l-0.4,0.5l-0.2,0.3l-0.4,0.4v0.4v0.3l-0.1,0.5v0.8v0.3l0.1,0.6l-0.1,0.2v0.5v0.7v0.5l-0.1,0.5l-0.2,0.4v0.3l0.1,0.2
		l0.1,0.3v0.3l0.2,0.3L301.6,419.2z"/>
	<path id="path170" class="st1" d="M305.5,417.5l0.2-0.3l0.1-0.2v-0.3l0.1-0.4V416v-0.5l0.2-0.3v-0.5l0.1-0.2l0.2-0.4l0.3-0.5v-0.4
		l0.1-0.3v-0.3l0.1-0.4l0.2-0.2l0.5-0.3l0.1-0.5l0.2-0.3l0.1-0.5l-0.4,0.2l-0.2,0.2l-0.1,0.2l-0.1,0.2l-0.3,0.2l-0.2,0.3l-0.4,0.5
		l-0.1,0.4v0.3v0.2l-0.1,0.4v0.2l-0.1,0.4l-0.2,0.3l-0.2,0.3l-0.1,0.5l0.1,0.3l-0.1,0.2l0.1,0.2v0.5l-0.1,0.3v0.3L305.5,417.5z"/>
	<path id="path172" class="st1" d="M310.7,418.2l0.3-0.3l0.5-0.2h0.3l0.2-0.1h0.5l0.2-0.1l0.1-0.3v-0.2l0.1-0.3l0.1-0.2l0.2-0.2
		l0.2-0.1l0.4-0.2l0.4-0.1h0.2h0.4l0.4-0.2l-0.1-0.4V415l0.1-0.4l0.1-0.5v-0.4l0.1-0.3l0.2-0.4l0.2-0.2l0.4-0.3l0.2-0.1l0.3-0.2h0.5
		l0.2-0.2l0.2-0.5l0.3-0.5l0.3,0.1l0.1,0.3l-0.1,0.2l0.2,0.5l0.4,0.2h0.3l0.3,0.1l0.4-0.1l0.2-0.2l0.2-0.1l0.3-0.1l0.3-0.2l0.2-0.1
		l0.1-0.2l0.3-0.3l0.3,0.1v0.6l-0.3,0.4l-0.1,0.2l-0.3,0.2l-0.3,0.1l-0.3,0.2h-0.2h-0.2h-0.2h-0.5h-0.2h-0.3l-0.4-0.2l-0.3-0.1
		l-0.3,0.6l-0.2,0.1l-0.2,0.1h-0.3l-0.2,0.4l-0.1,0.3l-0.2,0.5l-0.1,0.3v0.5v0.4l-0.1,0.2l0.1,0.3v0.3l0.1,0.5l-0.3,0.2l-0.2,0.1
		h-0.2l-0.3-0.2l-0.1-0.3l-0.7,0.1l-0.2,0.1l-0.2,0.1l-0.2,0.2l-0.2,0.2l-0.2,0.4l-0.1,0.2l-0.2,0.5h-0.4l-0.2-0.1l-0.3-0.2h-0.2
		l-0.6,0.2l-0.2,0.1L310.7,418.2z"/>
	<path id="path174" class="st1" d="M317.1,410.1l0.2-0.1v-0.3l0.2-0.2l0.3-0.1l0.2-0.1h0.3l0.2-0.2l0.2-0.5v-0.4l-0.5-0.4h-0.6
		l-0.2,0.1l-0.3,0.3l-0.1,0.2v0.4l-0.1,0.3v0.2v0.2L317.1,410.1z"/>
	<path id="path176" class="st1" d="M320.9,416.9l-0.2,0.2v0.2l0.1,0.3l0.1,0.4v0.5l-0.1,0.2l-0.1,0.2l0.1,0.2l0.2,0.2l0.1,0.3
		l0.1,0.2v0.2l-0.1,0.3l0.2,0.3l0.1,0.4l-0.1,0.2l0.1,0.3l-0.1,0.2l0.1,0.2v0.4l-0.1,0.3l0.1,0.4l0.2,0.2l0.2,0.2l0.2-0.1l0.2-0.3
		l0.3-0.3l0.2-0.1l0.2,0.3l-0.2,0.5l-0.2,0.2l-0.1,0.2l0.1,0.2l0.4,0.4l0.2-0.1l0.5-0.1l0.1-0.2l0.1-0.4l0.1-0.3l-0.2-0.2l-0.2-0.2
		l-0.1-0.2l-0.1-0.2l-0.2-0.1l-0.5-0.1l-0.3-0.2l-0.1-0.4v-0.5v-0.2v-0.2l-0.1-0.2v-0.2l-0.2-0.6l-0.1-0.2l-0.1-0.3v-0.2v-0.4
		l0.1-0.3l-0.1-0.4l-0.2-0.3l0.2-0.5v-0.2l-0.2-0.2l-0.1-0.2L320.9,416.9z"/>
	<path id="path178" class="st1" d="M325.1,427.7l-0.1,0.7v0.2l0.1,0.5v0.3l-0.1,0.2v0.2l-0.2,0.2l-0.2,0.4l-0.2,0.2l-0.1,0.3v0.4
		v0.2h0.6l0.1-0.3l0.2-0.3l0.2-0.3l0.2-0.2l0.1-0.2l0.4-0.2l0.2,0.1h0.4l0.6,0.1h0.3l0.2-0.1l0.7-0.1h0.6l0.5,0.1l0.4,0.1l0.4-0.1
		l0.2-0.2l0.2-0.2l0.2-0.2h0.2l0.5,0.1l0.3,0.5l0.2,0.3l0.2,0.4l0.2,0.2l0.1,0.3l0.1,0.2l0.2,0.5v0.5l0.3,0.1h0.3v-0.3v-0.4l0.5-0.4
		h0.4l0.3,0.1l0.2,0.1l0.2,0.3l0.2,0.4l0.1,0.3l0.1,0.4l-0.1,0.5v0.7v0.5l0.1,0.2v0.3v0.2l0.1,0.4v0.4l0.1,0.2l-0.1,0.2l-0.1,0.5
		l-0.3,0.2l-0.1,0.3l0.1,0.2l0.1,0.2v0.2v0.2l-0.1,0.4l-0.2,0.1l-0.2,0.2l-0.2,0.3v0.5l0.2,0.1l0.3-0.2l0.2-0.1l0.2-0.2l0.2,0.2v0.5
		l0.2,0.4l0.3,0.1l0.3-0.2v-0.6v-0.2l-0.2-0.3v-0.2l-0.2-0.4l-0.1-0.4l-0.2-0.5l0.1-0.2l0.2-0.2l0.1-1.6l-0.1-0.7v-0.5v-0.7v-0.4
		l0.1-0.2l0.1-0.4l0.1-0.6l-0.1-0.4l-0.1-0.2l-0.2-0.2l-0.4-0.2l-0.3-0.1l-0.3-0.5l-0.2-0.2l-0.2-0.5l-0.2-0.3l-0.2-0.2l-0.6,0.1
		l-0.2,0.1l-0.2,0.1l-0.3-0.2l-0.1-0.3l-0.1-0.2l-0.2-0.3l-0.2-0.3l-0.1-0.2l-0.6-0.1h-0.3l-0.7,0.1l-0.5,0.1l-0.3,0.1l-0.4,0.1
		h-0.4H329h-0.3h-0.3l-0.3-0.1l-0.4-0.2l-0.3,0.1l-0.1,0.3l-0.4,0.1l-0.2-0.3l-0.4-0.2l-0.2-0.1l-0.2-0.3l-0.1-0.2l-0.2-0.3
		l-0.5,0.1L325.1,427.7z"/>
	<path id="path180" class="st1" d="M342.3,430.1l-0.2,0.2l-0.1,0.2v0.2l-0.1,0.5l0.1,0.2l0.3,0.2h0.3l0.3-0.2l0.1-0.2l0.2-0.2
		l0.1-0.3v-0.2l-0.1-0.2v-0.5l-0.1-0.4v-0.2v-0.4v-0.4v-0.3l-0.1-0.2l-0.1-0.2l-0.2-0.3l-0.2-0.2l-0.4-0.8l-0.4-0.4l-0.2-0.2
		l-0.2-0.1l-0.2-0.1l-0.3-0.1v0.3l0.4,0.3l0.3,0.2l0.2,0.3l0.1,0.3l0.1,0.2l0.1,0.2l0.1,0.3l0.1,0.2v0.5l0.1,0.3v0.2l-0.2,0.4
		l0.2,0.3l0.1,0.2L342.3,430.1z"/>
	<path id="path182" class="st1" d="M335.6,425.5l0.3-0.5l0.4-0.2l0.3-0.2l0.3-0.1l0.4-0.1l0.4-0.1l0.3-0.2l0.4-0.1l0.2-0.1l0.4-0.1
		l0.3-0.1l0.2-0.1l0.3-0.2l0.2-0.4l0.1-0.3v-0.2l0.1-0.6l-0.1-0.4l-0.1-0.5l0.1-0.5l0.5-0.1l0.2,0.3l0.1,0.6v0.4l0.1,0.4l0.2,0.1
		l0.5,0.3v-0.5l-0.1-0.6l-0.1-0.2V421l-0.1-0.4l-0.2-0.3l-0.2-0.5l-0.2-0.3l-0.6-0.2h-0.3l-0.2,0.1l-0.2,0.1l-0.2,0.2l-0.2,0.5v0.4
		v0.2v0.2v0.2l0.1,0.4l0.1,0.5v0.6l-0.2,0.3l-0.2,0.1h-0.2l-0.2,0.1h-0.4h-0.3l-0.3,0.3l-0.2,0.2l-0.2,0.2l-0.2,0.1l-0.4,0.2
		l-0.3,0.1l-0.2,0.1l-0.3,0.3l-0.1,0.3L335.6,425.5z"/>
	<path id="path184" class="st1" d="M333.5,422.5l0.3-0.1l0.2-0.3l0.1-0.2l0.2-0.2l0.2-0.3l0.2-0.1l0.4-0.1l0.2-0.2v-0.2l-0.2-0.2
		l-0.5-0.1h-0.3l-0.2,0.1l-0.4,0.4l-0.2,0.3l-0.2,0.2l-0.2,0.3l-0.1,0.2v0.3l0.2,0.4L333.5,422.5z"/>
	<path id="path186" class="st1" d="M331.4,420l0.2-0.1l0.2-0.3l0.1-0.3l0.2-0.5l0.1-0.2l0.1-0.2l0.2-0.5l0.1-0.5l-0.1-0.4l0.1-0.5
		l0.2-0.3l0.1-0.2v-0.6l0.1-0.4l0.2-0.2l0.1-0.5l-0.2-0.3l-0.2-0.2h-0.6v0.5l-0.1,0.3l-0.1,0.2v0.5v0.2l-0.1,0.2L332,416l-0.2,0.3
		l-0.2,0.8l-0.1,0.4l0.1,0.4l-0.1,0.4l-0.1,0.2l-0.2,0.3l-0.4,0.5l-0.1,0.5l0.1,0.2l0.3,0.2L331.4,420z"/>
	<path id="path188" class="st1" d="M332,426.8v-0.8l0.1-0.2l0.2-0.5l0.1-0.2l0.1-0.3l0.1-0.3l0.1-0.3l-0.1-0.2l-0.4-0.4l-0.3-0.3
		l-0.1-0.2l-0.2-0.2l-0.6-0.7l-0.3-0.4l-0.1-0.3l-0.2-0.4l-0.2-0.3l-0.2-0.3l0.1-0.3l-0.1-0.2l-0.2-0.2l-0.2-0.1l-0.4-0.3l-0.5-0.4
		l-0.3-0.2l-0.3-0.1l-0.1-0.2l-0.1-0.2l-0.2-0.2l-0.4-0.2l-0.3-0.1l-0.3-0.2v0.3l0.3,0.2l0.2,0.1l0.2,0.2l0.4,0.4l0.1,0.2l0.1,0.3
		l0.2,0.2l0.3,0.3l0.3,0.2v0.2l-0.1,0.3l0.1,0.2l0.4,0.2l0.2,0.1l0.2,0.2l0.2,0.1l0.4,0.5l-0.1,0.2l-0.1,0.2l-0.1,0.3v0.2l0.1,0.2
		l0.3,0.2l0.3,0.3l0.3,0.3v0.2l-0.2,0.2l-0.2,0.2v0.5l0.4,0.4l0.2,0.3l0.2,0.2l0.2,0.2l0.1,0.2l0.1,0.2l0.2-0.1L332,426.8z"/>
	<path id="path190" class="st1" d="M325.4,418l0.1-0.5l0.1-0.3l0.1-0.2l0.2-0.2l0.1-0.2l0.1-0.5l0.1-0.2l-0.2-0.3l-0.3-0.2l-0.2-0.2
		l-0.2-0.2l-0.2-0.2l-0.2-0.1h-0.2l-0.3,0.1l-0.3-0.3l-0.3,0.4v0.5h0.2l0.2,0.1l0.2,0.1l0.1,0.5l0.3,0.3l0.2,0.2l-0.2,0.5l-0.1,0.2
		v0.2l0.2,0.4l-0.1,0.4l0.3,0.2L325.4,418z"/>
	<path id="path192" class="st1" d="M327.2,416.4l-0.2-0.1l-0.1-0.3v-0.5l0.1-0.2l0.1-0.4l0.2-0.2l0.2-0.4l0.1-0.4l0.2-0.4l0.2-0.3
		l0.7-0.1l0.2,0.1l0.2,0.2l-0.1,0.6l-0.3,0.3l-0.3,0.3l-0.1,0.4v0.4v0.3v0.2l-0.1,0.2l-0.2,0.2h-0.2L327.2,416.4z"/>
	<g id="Layer1001">
		<path id="path194" class="st2" d="M371,392.9v-64.2l-16.6,0v60.4C357.5,389.4,371,392.9,371,392.9L371,392.9z"/>
		<path id="path196" class="st2" d="M258,389.6l0-12.7l-12.2,3.1l0-51.4l-16.7,0v69.1C232.7,396.3,246,392,258,389.6L258,389.6z"/>
		<path id="path198" class="st2" d="M205.6,392.9c-1.8,1.3-5.1,1.4-7.6,1.4c-9.9,0-12.8-14.7-11.8-26.9c0.8-10.2-0.1-24.7,11.2-24.7
			c6.7,0,7.2,5.5,7.9,12.1l18-0.9c0.2-20.2-11.6-25.1-24.6-25.1c-13.7,0-31.9,10.2-32.4,38.5c-0.6,32.3,16.8,42.3,31.8,42
			c11.4-0.2,21.2-8.9,24.6-13.1v-34.5l-25.8,3.4v15.7l8.7-0.8V392.9z"/>
		<path id="path200" class="st2" d="M279.5,328.4c-15.7,0.1-24.8,11.1-24.7,30.5c0.1,16.8,10.3,27.5,24.7,27.6
			c14.9,0.1,24.7-10.9,24.7-29.3C304.2,339,292.6,328.3,279.5,328.4L279.5,328.4z M279.7,374.8L279.7,374.8c-7.3,0.6-7.8-9-7.8-17
			c0-8.6,0.4-17.1,7.7-17.2c7.3-0.1,7.5,9.1,7.5,17.4C287,365.8,287,374.5,279.7,374.8z"/>
		<path id="path202" class="st2" d="M339.1,364.3c7.9-2.3,8.4-13.2,8.3-17.3c-0.2-14.8-11.3-18.4-18.8-18.4h-20.2v56l14.9,0.5
			l0-18.3l1.8,0.1l7.5,19.1c3.8,0.1,17.9,2.5,17.9,2.5C349,384.7,339.1,364.3,339.1,364.3L339.1,364.3z M323.5,356.5L323.5,356.5
			v-14.4c6.8-0.3,9.2,1.8,9,7.2C332.4,355.3,330.2,356.8,323.5,356.5z"/>
		<path id="path204" class="st2" d="M407.4,328.8h-19.6l-12.7,64.8l11.1,3.5l3.2-17.1l12.3,5.8l3.8,18.9c7.2,2.9,19.1,9.6,19.1,9.6
			C423.2,405.6,407.4,328.8,407.4,328.8L407.4,328.8z M391.8,368L391.8,368l3.2-16.2l3.5,19.5L391.8,368z"/>
	</g>
	<path id="path207" class="st3" d="M313.2,436c0,0,1.3,0,1.8,0.1c0.5,0.1,1.3,0.3,3.2,1.4c1.9,1.1,4.5,1.5,4.9,1.5
		c0.3,0,1.2,0.1,1.2,0.4c0,0.4-0.9,1.7-2,2.6c-1.1,0.9-2.9,2.3-4.6,1.8L313.2,436z M313.7,436.3l4.2,7.3c1.5,0.4,3.2-0.9,4.3-1.7
		c0.5-0.4,1.9-1.8,1.9-2.3c-0.1-0.1-0.8-0.2-0.9-0.2c-1.3,0-3.9-0.9-5-1.5c-1-0.6-2.1-1.2-3.2-1.4
		C314.6,436.3,314.1,436.3,313.7,436.3L313.7,436.3z"/>
	<path id="path209" class="st4" d="M317,439.2c0.7-0.1,2,0.7,3.8,0.8c1.8,0.1,2.5-0.3,2.5-0.3s-1.7,0.3-3.6-0.4
		c-2-0.7-3.5-1.3-4.7-1.5L317,439.2z"/>
	<path id="path211" class="st5" d="M298.3,433.2c1.5-0.3,0.8-0.4,2.6-0.4c3.4,0,2.5-2.1,5.8-1.9c1.2,0.1,1.4-0.3,2.3,0.5
		c1,0.8,2.9,0.4,3.8,1.5c0.4,0.6,0.4,0.6-0.5,1c-1.9,0.7-3.4,0.2-5.4,0.2c-2,0-4.1-0.2-6,0.2c-0.4,0.1-2.2,0.2-2.4-0.1
		C298.2,433.7,298.3,433.2,298.3,433.2C298.3,433,298.4,433.2,298.3,433.2L298.3,433.2z"/>
	<path id="path213" class="st6" d="M311.2,429.3c3.5-0.1,6.2,1.1,9.4,1.7c1.1,0.2,3.4-0.2,4,0.1c0.1,0,0.1,0.1,0.2,0.1
		c-0.1,0.9-0.6,1.5-1.2,1.9c-3.4,2.3-7,0-10.7,0.8l-0.1-0.2l0.2-0.1c-0.4-0.7-1.1-1-2-1.1c-0.8-0.1-1.6-0.1-2,0
		c-0.6,0-1.2,0.1-1.4,0.1l0.2-0.6l0.5-0.9c0.5-0.4,1-0.9,1.7-1.2C310.3,429.5,310.8,429.4,311.2,429.3L311.2,429.3z M324.2,462.5
		c-0.2,0.1-0.7,0.5-0.9,0.6c-0.1,0.4-0.1,0.8,0.1,1.2c1,0.8,1.6,0.4,2.5-0.1c0,0-0.1-0.8-0.1-0.8c-0.2-0.4,0-1-0.6-1.3
		C325,462.2,324.3,462.5,324.2,462.5z M299.4,480.1c0,0.1,0.1,0.2,0.2,0.3l0.1,0.1c0.2-0.5,0.4-1,0.6-1.5c0-0.1,0-0.3,0-0.4
		c0,0,0,0,0,0.1C300.1,479.1,299.7,479.7,299.4,480.1L299.4,480.1z M300.2,477.7C300.2,477.7,300.2,477.7,300.2,477.7
		c0.1-0.3,0.5-0.5,0.5-0.7c0.1-0.2-0.1-0.7-0.1-1.1c0.2-0.9,0.1-1.7,0.4-2.5c0.3-0.8,0.7-2.2,1.5-2.7l0,0l0,0
		c0.4-0.1,0.8-0.1,1.2-0.2c1.7-0.4,3.5-0.4,5.3-0.7l0,0l0,0c0.6,0,1.3,0,1.9,0.1c1.6-0.3,3.4-0.8,5-0.5c1.3,0.2,4.6,0.8,5.8,0.6
		c0.6-0.1,1.5-0.4,1.9-0.9c0.2-0.2,0.3-0.4,0.4-0.6l0-0.1l0.1,0c0.7-0.4,1.8-0.4,2.3-1c0.1-0.3,0.3-0.5,0.4-0.8
		c-0.1,0.1-0.3,0.2-0.5,0.2c-0.6,0.2-0.4-0.3-1,0.6c-0.7,0.9-1.5,1.1-2.5,1.4c-1.1,0.3-1.5,0.5-2.8,0.3c-1.2-0.2-2-0.2-3.2,0.1
		c-1.2,0.3-2,0.1-3.1,0.1c-1-0.1-2.3,0.3-3.3,0.5c-0.9,0.2-1.6-0.1-2.5-0.4c-1.3-0.4-3.6-0.7-4.6-1.7c-0.3-0.3-0.5-0.5-0.9-0.7
		c-0.6-0.4-1.1-0.7-1.6-1.2c-0.3-0.3-1.2-1-1.8-1c-0.2,0.5,0.3,1.7,0.5,2.1c0.6,1.3,1.1,3.9,0.9,5.4c-0.1,0.7-0.2,1.5-0.1,2.2
		c0.1,0.8,0,1.6-0.3,2.4C300.1,476.9,300.1,477.3,300.2,477.7L300.2,477.7z M327.8,465.1c0.4-0.3,0.8-0.5,1-0.9
		c0.5-0.8,0.5-4,0.2-5.2c-0.3,0.6-0.9,0.8-1.5,1.1c-0.5,0.3-0.7,0.3-0.2,0.8c0.4,0.4,0.9,0.5,1,0.6c0.1,0.1,0.1,0.1,0.1,0.3
		c0,0.4-0.3,1.5-0.4,1.9C328,464.2,327.9,464.7,327.8,465.1z M299.8,480.9C299.8,480.9,299.7,480.9,299.8,480.9L299.8,480.9
		l-0.1-0.1l0,0c0,0-0.1-0.1-0.1-0.1c0,0,0,0-0.1-0.1l0,0c0,0-0.1-0.1-0.1-0.1l0,0l0,0c-0.3-0.5-0.5-1.2-0.7-1.6c-0.7-1-1.3-2-2-3.1
		c-0.5-0.6-1.1-1-1.6-1.7c-0.1-0.1-0.3-0.2-0.4-0.3c-0.2-0.6-0.3-1.3-0.5-1.9c-0.5-1.2-2.2-3.2-3.8-3.4c-0.1-0.3-2.5-3.2-2.7-3.4
		c-0.7-0.4-1.9-0.5-2.3-1.2c-0.3-0.6-0.1-2.5-0.5-3.3c-0.5-1-1.5-1.7-2.1-2.5c-0.7-1-0.9-2.6-1.2-3.9c-0.2-0.8,0.6-2.9,0.8-3.7
		c0.2-0.8-0.1-1.9,0.2-2.6c0.6-0.8,1.3-1.5,1.9-2.3c0.3-0.5,0.6-1.1,1-1.6c0.7-0.6,1.3-1.2,2-1.8c1-1.3,2-2.5,3-3.8
		c0.3-0.5,0.8-0.9,0.9-1.5c-1.4-1.1,0-4.8,0.7-5.4c1.6-1.6,4.9-1.7,7.9-1.2c1.3,0,2.6,0,4,0c1.4,0.1,2.6-0.9,4-0.7
		c0.3,0.3,0.5,0.5,0.5,1.2l-1,0.7c-0.2,0.2-0.4,0.4-0.7,0.5c-0.3,0.1-0.5,0.3-0.7,0.5l0,0c-0.3,0.2-0.9,0.3-1.4,0.5v0
		c-0.8,0.2-1.8,0.4-2.6,0.5c-1.4,0.2-2.9,0.2-2.9,0.2v0.6c0,0,1.5,0,2.9-0.2c0.8-0.1,1.8-0.3,2.6-0.5l0,0c0.6-0.2,1.2-0.3,1.6-0.6
		l1,0l0.1,0v0c0,0,0.8,0,1.7-0.1c0.5,0,1.2-0.1,1.9,0c0.7,0.1,1.3,0.3,1.6,0.8l0.3-0.1c0.5,1.3,0.2,2.3,1,3.2
		c0.8,1.1,3.1,1.4,3.7,3.1c0.9,2.4-0.1,3.7,0.5,5.8c0.3,0.8,0.9,1.5,1.3,2.1c1.1,1.7,2.3,3.5,3.4,5.2c0.9,1.2,1.9,2.9,3.3,3.7
		c1.1,0.7,2.7,0.8,3.4,1.9l0,0c0.5,1,0.5,4.4,0,5.5l0,0l0,0.1l0,0l0,0.1l0,0l0,0c-0.3,0.5-1,0.7-1.3,1.3c-0.3,0.6-0.6,1.2-0.9,1.8
		c-0.6,0.7-1.5,0.6-2.4,1.1c-0.2,0.2-0.3,0.4-0.5,0.7c-0.5,0.5-1.3,0.8-2.1,1c-1.2,0.3-4.6-0.3-5.9-0.6c-1.6-0.3-3.5,0.2-4.9,0.5
		c-0.6,0-1.3,0-1.9-0.1c-1.9,0.3-3.6,0.3-5.3,0.7c-0.4,0.1-0.8,0.1-1.2,0.2c-0.7,0.4-1.1,1.7-1.4,2.5c-0.3,0.9-0.2,1.3-0.4,2.5
		c-0.1,0.4,0.1,0.8,0.1,1.1c-0.1,0.2-0.4,0.4-0.5,0.7c-0.2,0.4,0.2,0.8,0,1.2C300.3,479.6,299.9,480.2,299.8,480.9L299.8,480.9z
		 M298.7,433.9c-0.7,0.2-1.3,0.1-1.8,0.5c-0.1,0.5-0.2,1.1-0.5,1.5c-0.7,0.9-3.4,2.2-5.1,1.3c-0.1,0-0.1,0-0.2,0.1
		c0.4,4-1.1,4.6-1.7,7.8c-0.1,1-0.2,1.9-0.3,2.9c0.1,0.6,0.3,1.4,0.1,2c-0.4,1.4-1.4,2.2-1.7,3.8c-0.4,1.8,0.6,2.8,1,3.9
		c0.2,1,0.4,1.9,0.7,2.9c0.7,1.4,1.3,2.6,2.2,3.8c0.7,0.6,1.3,1.2,2,1.8c0.3,0.5,0.7,0.9,1,1.4c0,0,0,0,0.1,0c0.2-1.1,0.4-3,0-4.1
		c-0.4-0.8-0.7-1.6-1.1-2.4c-0.2-0.9-0.5-1.8-0.7-2.6c-0.4-0.6-0.7-1.1-1.1-1.7c-0.5-0.9-0.3-2,0.5-2.6c0.6-0.5,1.8-0.3,2.2,0.2
		c1.4,1.8,1,4.7,3.1,6.4c0.8,0.6,1.7,1,2.6,1.5c2.3,1.3,2.5,1.9,3.9,2.2c2,0.4,3.3-1.4,5-0.9c1.2,0.4,1.2,2.1,1.9,3
		c0.9,1.2,2.6,1,4.1,0.5c0.5,0,1,0,1.5,0.1c0-0.1,0-0.1,0-0.2c-0.5-0.6-1.3-0.8-2-1.4c0-0.2,0.1-0.3,0.1-0.5c3,0.3,2.3-0.6,3.9-1.8
		c0.5-0.3,0.9-0.5,1.4-0.8c0-0.2,0.1-0.3,0.1-0.5c0.3-0.7,0.8-0.7,1.7-0.7c0,0,0,0,0-0.1c-0.2-0.2-0.4-0.4-0.6-0.6
		c-1.5-0.7-2.1-2.1-3-3.4c-0.9-0.9-1.9-1.9-2.8-2.8c-0.8-1.3-1.5-2.6-2.3-3.9c-0.6-0.7-1.1-1.5-1.7-2.2c-0.4-1,0.4-1.9,0.1-3
		c-0.2-1-1.3-2.6-1.9-3.3c-1.7-1.9-4.8,1.7-6.6-0.9c-1-1.5-0.3-3.2,1-3.9c0.4-0.1,0.8-0.2,1.3-0.4c0-0.3-0.1-0.3-0.2-0.5
		c-2.5-1-3.1,0.4-5,1c-1,0.3-2-0.1-2.3-0.8c-0.6-1.1,0.3-2.1,0.9-2.5C298.6,434.1,298.7,434,298.7,433.9L298.7,433.9z"/>
	<path id="path215" class="st6" d="M304.4,448.8c0,0,1.4,0.7,2.2-0.3v0c0.8-1,0.1-1.8,0.1-1.8l-1-1l1.4,0.4c1.1,0.3,1.4,1.1,1.4,1.8
		l0.2-0.2l0.3-0.3l0.3,0.4c0.7,0.9,0.4,1.4,0.1,1.6c-0.2,0.1-0.4,0.2-0.5,0.2l0,0v0c0,0-0.1,0-0.2,0.1l0,0c-0.1,0-0.1,0.1-0.2,0.1
		l0,0c-0.2,0.2-0.4,0.2-0.6,0.2h0c-0.2,0-0.3-0.1-0.4-0.1l0,0c-0.1,0-0.2-0.1-0.3-0.1h0c-0.1,0-0.1,0-0.1,0l0,0l-0.1,0h0
		c-0.5,0.2-2,0.8-3-0.3l-1.5-1.6L304.4,448.8z M307.7,447.7c0,0.4-0.2,0.8-0.5,1.2c0.1,0,0.1,0,0.2,0v0l0.1,0l0.1-0.4
		C307.6,448.5,307.8,448.1,307.7,447.7L307.7,447.7z M308.9,448.4c-0.2,0.1-0.3,0.3-0.5,0.4c0.1-0.1,0.3-0.1,0.4-0.1l0,0l0,0
		c0,0,0.1,0,0.1,0C309,448.6,309,448.6,308.9,448.4L308.9,448.4z M308,449.1L308,449.1L308,449.1L308,449.1L308,449.1z"/>
	<path id="path217" class="st6" d="M303,447.7c0,0,0.9-1.9,2.3-2c2.7-0.2,2.9,1.2,2.9,1.2s0.8-0.3,0.3-0.8c-0.5-0.5-1.4-1.1-3-1
		C303.9,445.3,302.9,447.2,303,447.7z"/>
	<path id="path221" class="st6" d="M295.5,439.3c0,0-2,1.1-2.3,4.1c-0.3,3,1.8,6.2,2.9,6.6c0.7,0.2,0.3-0.7,0.3-0.7
		s-1.6-2.1-1.6-4.7c0-2.6,1.1-4.6,1.2-4.8C296,439.5,296,439.1,295.5,439.3L295.5,439.3z"/>
	<path id="path223" class="st6" d="M298.7,448.6c0,0,0.8-2,0.7-4c-0.1-2-0.6-3.6-0.6-3.6s-0.1-0.5,0.2-0.7c0.3-0.2,0.8,0.2,1,0.5
		c0.2,0.3,0.8,2.2,0.6,4.1c-0.3,2.3-1.5,3.8-1.5,3.8C299.1,448.7,298.4,449.2,298.7,448.6z"/>
	<path id="path225" class="st5" d="M300.6,444.9c-0.3,2.3-1.5,3.8-1.5,3.8c-0.1,0-0.7,0.5-0.4-0.1c0,0,0.8-2,0.7-4
		c-0.1-2-0.6-3.6-0.6-3.6s-0.1-0.5,0.2-0.7c0.3-0.2,0.8,0.2,1,0.5C300.3,441,300.9,443,300.6,444.9L300.6,444.9z M308.5,449.5
		c-0.1,0-0.1,0.1-0.2,0.1l0,0c-0.2,0.2-0.4,0.2-0.6,0.2h0c-0.2,0-0.3-0.1-0.4-0.1l0,0c-0.1,0-0.2-0.1-0.3-0.1h0c-0.1,0-0.1,0-0.1,0
		l0,0l-0.1,0h0c-0.5,0.2-2,0.8-3-0.3l-1.5-1.6l1.9,1c0,0,1.4,0.7,2.2-0.3v0c0.8-1,0.1-1.8,0.1-1.8l-1-1c-0.1,0-0.2,0-0.3,0
		c-1.4,0.1-2.3,2-2.3,2c-0.1-0.5,1-2.4,2.5-2.5c1.5-0.1,2.4,0.5,3,1c0.5,0.5-0.3,0.8-0.3,0.8s-0.2-1.3-2.4-1.2l1.2,0.4
		c1.1,0.3,1.4,1.1,1.4,1.8l0.2-0.2l0.3-0.3l0.3,0.4c0.7,0.9,0.4,1.4,0.1,1.6c-0.2,0.1-0.4,0.2-0.5,0.2l0,0
		C308.7,449.5,308.6,449.5,308.5,449.5L308.5,449.5z M311.3,448.4c-0.4-1,0.4-1.9,0.1-3c-0.2-1-1.3-2.6-1.9-3.3
		c-1.7-1.9-4.8,1.7-6.6-0.9c-1-1.5-0.3-3.2,1-3.9l1.3-0.4c0-0.3-0.1-0.3-0.2-0.5c-2.5-1-3.1,0.4-5,1c-1,0.3-2-0.1-2.3-0.8
		c-0.6-1.1,0.3-2.1,0.9-2.5l0.2-0.3c-0.7,0.2-1.3,0.1-1.8,0.5c-0.1,0.5-0.2,1.1-0.5,1.5c-0.7,0.9-3.4,2.2-5.1,1.3l-0.2,0.1
		c0.4,4-1.1,4.6-1.7,7.8l-0.3,2.9c0.1,0.6,0.3,1.4,0.1,2c-0.4,1.4-1.4,2.2-1.7,3.8c-0.4,1.8,0.6,2.8,1,3.9l0.7,2.9
		c0.7,1.4,1.3,2.6,2.2,3.8l2,1.8l1,1.4h0.1c0.2-1.1,0.4-3,0-4.1l-1.1-2.4l-0.7-2.6l-1.1-1.7c-0.5-0.9-0.3-2,0.5-2.6
		c0.6-0.5,1.8-0.3,2.2,0.2c1.4,1.8,1,4.7,3.1,6.4c0.8,0.6,1.7,1,2.6,1.5c2.3,1.3,2.5,1.9,3.9,2.2c2,0.4,3.3-1.4,5-0.9
		c1.2,0.4,1.2,2.1,1.9,3c0.9,1.2,2.6,1,4.1,0.5l1.5,0.1v-0.2c-0.5-0.6-1.3-0.8-2-1.4l0.1-0.5c3,0.3,2.3-0.6,3.9-1.8l1.4-0.8l0.1-0.5
		c0.3-0.7,0.8-0.7,1.7-0.7v-0.1l-0.6-0.6c-1.5-0.7-2.1-2.1-3-3.4l-2.8-2.8l-2.3-3.9L311.3,448.4z M296,439.7
		c-0.1,0.2-1.2,2.2-1.2,4.8c0,2.6,1.6,4.7,1.6,4.7s0.4,0.9-0.3,0.7c-1.1-0.3-3.2-3.5-2.9-6.6c0.3-3,2.3-4.1,2.3-4.1
		C296,439.1,296.1,439.5,296,439.7L296,439.7z"/>
	<path id="path227" class="st5" d="M302.5,466.7c-0.6-0.4-1.1-0.7-1.6-1.2c-0.3-0.3-1.2-1-1.8-1c-0.2,0.5,0.3,1.7,0.5,2.1
		c0.6,1.3,1.1,3.9,0.9,5.4c-0.1,0.7-0.2,1.5-0.1,2.2c0.1,0.8,0,1.6-0.3,2.4c-0.2,0.4-0.1,0.8-0.1,1.2l0,0c0.1-0.3,0.5-0.5,0.5-0.6
		c0.1-0.2-0.1-0.7-0.1-1.1c0.2-0.9,0.1-1.7,0.4-2.5c0.3-0.8,0.7-2.2,1.5-2.7l0,0l0,0c0.4-0.1,0.8-0.1,1.2-0.2
		c1.7-0.4,3.5-0.4,5.3-0.7l0,0l0,0l1.9,0.1c1.6-0.3,3.4-0.8,5-0.5c1.3,0.2,4.6,0.8,5.8,0.6c0.6-0.1,1.5-0.4,1.9-0.9
		c0.2-0.2,0.3-0.4,0.4-0.6l0-0.1l0.1,0c0.7-0.4,1.8-0.4,2.3-1c0.1-0.3,0.3-0.5,0.4-0.8c-0.1,0.1-0.3,0.2-0.5,0.2
		c-0.6,0.2-0.4-0.3-1,0.6c-0.7,0.9-1.5,1.1-2.5,1.4c-1.1,0.3-1.5,0.5-2.8,0.3c-1.2-0.2-2-0.2-3.2,0.1c-1.2,0.3-2,0.1-3.1,0.1
		c-1-0.1-2.3,0.3-3.3,0.5c-0.9,0.2-1.6-0.1-2.5-0.4c-1.3-0.4-3.6-0.7-4.6-1.7C303.1,467.1,302.9,466.9,302.5,466.7L302.5,466.7z"/>
	<path id="path229" class="st5" d="M323.3,463.1c-0.1,0.4-0.1,0.8,0.1,1.2c1,0.8,1.6,0.4,2.5-0.1l-0.1-0.8c-0.2-0.4,0-1-0.6-1.3
		c-0.1,0-0.8,0.3-1,0.3C324,462.6,323.5,463,323.3,463.1L323.3,463.1z"/>
	<path id="path231" class="st5" d="M327.4,461c0.4,0.4,0.9,0.5,1,0.6c0.1,0.1,0.1,0.1,0.1,0.3c0,0.4-0.3,1.5-0.4,1.9
		c-0.1,0.5-0.2,0.9-0.3,1.4c0.4-0.3,0.8-0.5,1-0.9c0.5-0.8,0.5-4,0.2-5.2c-0.3,0.6-0.9,0.8-1.5,1.1C327,460.5,326.9,460.5,327.4,461
		L327.4,461z"/>
	<path id="path233" class="st5" d="M307.3,448.9l0.1-0.4c0,0,0.1-0.4,0.1-0.8c0,0.4-0.2,0.8-0.5,1.2c0.1,0,0.1,0,0.2,0L307.3,448.9z
		"/>
	<path id="path235" class="st3" d="M317.9,443.6c1.5,0.4,3.2-0.9,4.3-1.7c0.5-0.4,1.9-1.8,1.9-2.3c-0.1-0.1-0.8-0.2-0.9-0.2
		c-1.3,0-3.9-0.9-5-1.5c-1-0.6-2.1-1.2-3.2-1.4c-0.3-0.1-0.8-0.1-1.2-0.1l0.6,1.1c0.3,0.2,0.6,0.3,0.9,0.5l-0.2-0.2
		c1.1,0.2,2.7,0.8,4.7,1.5c2,0.7,3.6,0.4,3.6,0.4s-0.7,0.4-2.5,0.3c-1.8-0.1-3.1-0.8-3.8-0.8l-0.1-0.1c0.2,0.2,0.3,0.5,0.4,0.7
		c0.5,1.3,0.4,2.3,0.3,3.4L317.9,443.6z"/>
	<path id="path237" class="st5" d="M308.7,448.4c-0.2,0.1-0.3,0.3-0.5,0.4c0.1-0.1,0.3-0.1,0.4-0.1l0,0l0,0c0,0,0.1,0,0.1,0
		C308.8,448.6,308.8,448.6,308.7,448.4L308.7,448.4z"/>
	<path id="path241" class="st2" d="M354.7,408.3c0.9,0,1.8,0.2,2.7,0.7c0.9,0.5,1.5,1.1,2,2c0.5,0.9,0.7,1.8,0.7,2.7
		c0,1-0.2,1.9-0.7,2.7c-0.5,0.9-1.2,1.5-2,2c-0.9,0.5-1.8,0.7-2.7,0.7c-1,0-1.9-0.2-2.7-0.7c-0.9-0.5-1.5-1.2-2-2
		c-0.5-0.9-0.7-1.8-0.7-2.7c0-1,0.2-1.9,0.7-2.7c0.5-0.9,1.2-1.5,2-2C352.8,408.5,353.7,408.3,354.7,408.3z M354.7,409.4
		c-0.8,0-1.5,0.2-2.2,0.6c-0.7,0.4-1.2,0.9-1.6,1.6c-0.4,0.7-0.6,1.4-0.6,2.2c0,0.8,0.2,1.5,0.6,2.2c0.4,0.7,0.9,1.2,1.6,1.6
		c0.7,0.4,1.4,0.6,2.2,0.6c0.8,0,1.5-0.2,2.2-0.6c0.7-0.4,1.2-0.9,1.6-1.6c0.4-0.7,0.6-1.4,0.6-2.2c0-0.8-0.2-1.5-0.6-2.2
		c-0.4-0.7-0.9-1.2-1.6-1.6C356.1,409.6,355.4,409.4,354.7,409.4L354.7,409.4z M352.2,416.7v-5.8h1.2c1.1,0,1.7,0,1.8,0
		c0.4,0,0.7,0.1,0.9,0.2c0.2,0.1,0.4,0.3,0.5,0.6c0.1,0.2,0.2,0.5,0.2,0.8c0,0.4-0.1,0.8-0.4,1.1c-0.3,0.3-0.7,0.5-1.1,0.6
		c0.2,0.1,0.3,0.1,0.4,0.2c0.1,0.1,0.2,0.2,0.4,0.4c0,0.1,0.2,0.3,0.4,0.7l0.7,1.2h-1.5l-0.5-0.9c-0.3-0.6-0.6-1-0.8-1.2
		c-0.2-0.2-0.5-0.2-0.8-0.2h-0.3v2.4L352.2,416.7z M353.4,413.4h0.5c0.7,0,1.1,0,1.3-0.1c0.2-0.1,0.3-0.1,0.4-0.3
		c0.1-0.1,0.1-0.3,0.1-0.4c0-0.2,0-0.3-0.1-0.4c-0.1-0.1-0.2-0.2-0.4-0.3c-0.2-0.1-0.6-0.1-1.3-0.1h-0.5V413.4z"/>
</g>
</svg>
